<svg xmlns="http://www.w3.org/2000/svg" xmlns:xlink="http://www.w3.org/1999/xlink" width="1584" zoomAndPan="magnify" viewBox="0 0 1188 296.999993" height="396" preserveAspectRatio="xMidYMid meet" version="1.2"><metadata><ContainsAiGeneratedContent>Yes</ContainsAiGeneratedContent></metadata><defs/><g id="64fd5b8345"><g style="fill:#f39d28;fill-opacity:1;"><g transform="translate(220.838901, 229.824607)"><path style="stroke:none" d="M 81.375 4.015625 C 74.1875 4.015625 67.25 3.359375 60.5625 2.046875 C 53.875 0.742188 47.671875 -1.289062 41.953125 -4.0625 C 36.242188 -6.832031 31.25 -10.375 26.96875 -14.6875 C 22.695312 -19 19.367188 -24.140625 16.984375 -30.109375 C 14.609375 -36.078125 13.421875 -42.945312 13.421875 -50.71875 L 13.421875 -146.390625 C 13.421875 -149.066406 14.753906 -150.40625 17.421875 -150.40625 L 50.53125 -150.40625 C 53.195312 -150.40625 54.53125 -149.066406 54.53125 -146.390625 L 54.53125 -61.390625 C 54.53125 -51.078125 56.832031 -43.617188 61.4375 -39.015625 C 66.039062 -34.410156 72.6875 -32.109375 81.375 -32.109375 C 90.25 -32.109375 96.953125 -34.410156 101.484375 -39.015625 C 106.023438 -43.617188 108.296875 -51.078125 108.296875 -61.390625 L 108.296875 -146.390625 C 108.296875 -149.066406 109.632812 -150.40625 112.3125 -150.40625 L 145.40625 -150.40625 C 148.082031 -150.40625 149.421875 -149.066406 149.421875 -146.390625 L 149.421875 -50.71875 C 149.421875 -40.988281 147.625 -32.664062 144.03125 -25.75 C 140.445312 -18.832031 135.519531 -13.171875 129.25 -8.765625 C 122.976562 -4.359375 115.726562 -1.128906 107.5 0.921875 C 99.28125 2.984375 90.570312 4.015625 81.375 4.015625 Z M 81.375 4.015625 "/></g></g><g style="fill:#f39d28;fill-opacity:1;"><g transform="translate(383.664109, 229.824607)"><path style="stroke:none" d="M 161.265625 -113.09375 L 190.9375 -113.09375 C 192.4375 -113.09375 193.445312 -112.648438 193.96875 -111.765625 C 194.488281 -110.890625 194.390625 -109.734375 193.671875 -108.296875 L 139.71875 -0.203125 C 138.351562 2.671875 136.5625 4.140625 134.34375 4.203125 C 132.125 4.273438 130.265625 2.804688 128.765625 -0.203125 L 99.28125 -56.296875 L 98.3125 -56.296875 L 68.546875 -0.203125 C 67.109375 2.804688 65.257812 4.273438 63 4.203125 C 60.75 4.140625 58.941406 2.671875 57.578125 -0.203125 L 4.40625 -108.296875 C 3.75 -109.734375 3.679688 -110.890625 4.203125 -111.765625 C 4.734375 -112.648438 5.75 -113.09375 7.25 -113.09375 L 36.71875 -113.09375 C 37.832031 -113.09375 38.765625 -112.863281 39.515625 -112.40625 C 40.265625 -111.945312 40.867188 -111.164062 41.328125 -110.0625 L 66.09375 -58.75 L 93.21875 -113.09375 C 94.71875 -116.15625 96.523438 -117.703125 98.640625 -117.734375 C 100.765625 -117.773438 102.644531 -116.226562 104.28125 -113.09375 L 132.375 -58.65625 L 156.5625 -110.0625 C 157.082031 -111.164062 157.71875 -111.945312 158.46875 -112.40625 C 159.226562 -112.863281 160.160156 -113.09375 161.265625 -113.09375 Z M 161.265625 -113.09375 "/></g></g><g style="fill:#f39d28;fill-opacity:1;"><g transform="translate(581.932927, 229.824607)"><path style="stroke:none" d="M 66 -115.546875 C 74.351562 -115.546875 81.921875 -114.1875 88.703125 -111.46875 C 95.492188 -108.757812 101.304688 -104.84375 106.140625 -99.71875 C 110.972656 -94.601562 114.675781 -88.421875 117.25 -81.171875 C 119.832031 -73.921875 121.125 -65.726562 121.125 -56.59375 C 121.125 -54.695312 120.828125 -53.273438 120.234375 -52.328125 C 119.648438 -51.390625 118.347656 -50.921875 116.328125 -50.921875 L 43.96875 -50.921875 C 44.164062 -45.628906 45.503906 -41.300781 47.984375 -37.9375 C 50.460938 -34.582031 53.609375 -32.101562 57.421875 -30.5 C 61.242188 -28.90625 65.242188 -28.109375 69.421875 -28.109375 C 73.535156 -28.109375 77.84375 -28.789062 82.34375 -30.15625 C 86.851562 -31.53125 91.359375 -33.585938 95.859375 -36.328125 C 98.140625 -37.566406 99.9375 -37.207031 101.25 -35.25 L 114.953125 -16.84375 C 115.734375 -15.863281 115.976562 -14.847656 115.6875 -13.796875 C 115.394531 -12.753906 114.53125 -11.78125 113.09375 -10.875 C 105.71875 -6.238281 98.191406 -2.859375 90.515625 -0.734375 C 82.847656 1.390625 75.394531 2.453125 68.15625 2.453125 C 60.050781 2.453125 52.425781 1.128906 45.28125 -1.515625 C 38.132812 -4.160156 31.851562 -8.007812 26.4375 -13.0625 C 21.019531 -18.125 16.757812 -24.3125 13.65625 -31.625 C 10.5625 -38.9375 9.015625 -47.257812 9.015625 -56.59375 C 9.015625 -65.726562 10.414062 -73.921875 13.21875 -81.171875 C 16.019531 -88.421875 19.96875 -94.601562 25.0625 -99.71875 C 30.15625 -104.84375 36.175781 -108.757812 43.125 -111.46875 C 50.082031 -114.1875 57.707031 -115.546875 66 -115.546875 Z M 66.96875 -87.828125 C 64.550781 -87.828125 61.90625 -87.414062 59.03125 -86.59375 C 56.164062 -85.78125 53.523438 -84.347656 51.109375 -82.296875 C 48.691406 -80.242188 46.929688 -77.289062 45.828125 -73.4375 L 85.09375 -73.4375 C 84.4375 -77.21875 83.144531 -80.132812 81.21875 -82.1875 C 79.289062 -84.25 77.070312 -85.703125 74.5625 -86.546875 C 72.050781 -87.398438 69.519531 -87.828125 66.96875 -87.828125 Z M 66.96875 -87.828125 "/></g></g><g style="fill:#f39d28;fill-opacity:1;"><g transform="translate(711.86022, 229.824607)"><path style="stroke:none" d="M 112.703125 0 L 10.671875 0 C 9.035156 0 7.957031 -0.488281 7.4375 -1.46875 C 6.914062 -2.445312 7.113281 -3.554688 8.03125 -4.796875 L 60.3125 -83.03125 L 13.609375 -83.03125 C 10.929688 -83.03125 9.59375 -84.367188 9.59375 -87.046875 L 9.59375 -109.078125 C 9.59375 -111.753906 10.929688 -113.09375 13.609375 -113.09375 L 110.453125 -113.09375 C 112.078125 -113.09375 113.117188 -112.648438 113.578125 -111.765625 C 114.035156 -110.890625 113.875 -109.734375 113.09375 -108.296875 L 65.609375 -31.234375 L 112.703125 -31.234375 C 115.378906 -31.234375 116.71875 -29.925781 116.71875 -27.3125 L 116.71875 -4.015625 C 116.71875 -1.335938 115.378906 0 112.703125 0 Z M 112.703125 0 "/></g></g><g style="fill:#f39d28;fill-opacity:1;"><g transform="translate(836.206543, 229.824607)"><path style="stroke:none" d="M 70.59375 2.453125 C 61.582031 2.453125 53.289062 1.015625 45.71875 -1.859375 C 38.15625 -4.734375 31.597656 -8.8125 26.046875 -14.09375 C 20.492188 -19.382812 16.195312 -25.632812 13.15625 -32.84375 C 10.125 -40.0625 8.609375 -47.976562 8.609375 -56.59375 C 8.609375 -65.207031 10.125 -73.101562 13.15625 -80.28125 C 16.195312 -87.46875 20.492188 -93.703125 26.046875 -98.984375 C 31.597656 -104.273438 38.15625 -108.359375 45.71875 -111.234375 C 53.289062 -114.109375 61.582031 -115.546875 70.59375 -115.546875 C 79.738281 -115.546875 88.113281 -114.109375 95.71875 -111.234375 C 103.320312 -108.359375 109.910156 -104.273438 115.484375 -98.984375 C 121.066406 -93.703125 125.375 -87.46875 128.40625 -80.28125 C 131.445312 -73.101562 132.96875 -65.207031 132.96875 -56.59375 C 132.96875 -47.976562 131.445312 -40.0625 128.40625 -32.84375 C 125.375 -25.632812 121.066406 -19.382812 115.484375 -14.09375 C 109.910156 -8.8125 103.320312 -4.734375 95.71875 -1.859375 C 88.113281 1.015625 79.738281 2.453125 70.59375 2.453125 Z M 70.59375 -28.6875 C 76.082031 -28.6875 80.765625 -29.941406 84.640625 -32.453125 C 88.523438 -34.972656 91.492188 -38.335938 93.546875 -42.546875 C 95.609375 -46.753906 96.640625 -51.4375 96.640625 -56.59375 C 96.640625 -61.75 95.609375 -66.414062 93.546875 -70.59375 C 91.492188 -74.769531 88.523438 -78.113281 84.640625 -80.625 C 80.765625 -83.144531 76.082031 -84.40625 70.59375 -84.40625 C 65.3125 -84.40625 60.757812 -83.144531 56.9375 -80.625 C 53.113281 -78.113281 50.15625 -74.769531 48.0625 -70.59375 C 45.976562 -66.414062 44.9375 -61.75 44.9375 -56.59375 C 44.9375 -51.4375 45.976562 -46.753906 48.0625 -42.546875 C 50.15625 -38.335938 53.113281 -34.972656 56.9375 -32.453125 C 60.757812 -29.941406 65.3125 -28.6875 70.59375 -28.6875 Z M 70.59375 -28.6875 "/></g></g><g style="fill:#f5f5f5;fill-opacity:1;"><g transform="translate(215.521359, 224.50706)"><path style="stroke:none" d="M 81.375 4.015625 C 74.1875 4.015625 67.25 3.359375 60.5625 2.046875 C 53.875 0.742188 47.671875 -1.289062 41.953125 -4.0625 C 36.242188 -6.832031 31.25 -10.375 26.96875 -14.6875 C 22.695312 -19 19.367188 -24.140625 16.984375 -30.109375 C 14.609375 -36.078125 13.421875 -42.945312 13.421875 -50.71875 L 13.421875 -146.390625 C 13.421875 -149.066406 14.753906 -150.40625 17.421875 -150.40625 L 50.53125 -150.40625 C 53.195312 -150.40625 54.53125 -149.066406 54.53125 -146.390625 L 54.53125 -61.390625 C 54.53125 -51.078125 56.832031 -43.617188 61.4375 -39.015625 C 66.039062 -34.410156 72.6875 -32.109375 81.375 -32.109375 C 90.25 -32.109375 96.953125 -34.410156 101.484375 -39.015625 C 106.023438 -43.617188 108.296875 -51.078125 108.296875 -61.390625 L 108.296875 -146.390625 C 108.296875 -149.066406 109.632812 -150.40625 112.3125 -150.40625 L 145.40625 -150.40625 C 148.082031 -150.40625 149.421875 -149.066406 149.421875 -146.390625 L 149.421875 -50.71875 C 149.421875 -40.988281 147.625 -32.664062 144.03125 -25.75 C 140.445312 -18.832031 135.519531 -13.171875 129.25 -8.765625 C 122.976562 -4.359375 115.726562 -1.128906 107.5 0.921875 C 99.28125 2.984375 90.570312 4.015625 81.375 4.015625 Z M 81.375 4.015625 "/></g></g><g style="fill:#f5f5f5;fill-opacity:1;"><g transform="translate(378.346566, 224.50706)"><path style="stroke:none" d="M 161.265625 -113.09375 L 190.9375 -113.09375 C 192.4375 -113.09375 193.445312 -112.648438 193.96875 -111.765625 C 194.488281 -110.890625 194.390625 -109.734375 193.671875 -108.296875 L 139.71875 -0.203125 C 138.351562 2.671875 136.5625 4.140625 134.34375 4.203125 C 132.125 4.273438 130.265625 2.804688 128.765625 -0.203125 L 99.28125 -56.296875 L 98.3125 -56.296875 L 68.546875 -0.203125 C 67.109375 2.804688 65.257812 4.273438 63 4.203125 C 60.75 4.140625 58.941406 2.671875 57.578125 -0.203125 L 4.40625 -108.296875 C 3.75 -109.734375 3.679688 -110.890625 4.203125 -111.765625 C 4.734375 -112.648438 5.75 -113.09375 7.25 -113.09375 L 36.71875 -113.09375 C 37.832031 -113.09375 38.765625 -112.863281 39.515625 -112.40625 C 40.265625 -111.945312 40.867188 -111.164062 41.328125 -110.0625 L 66.09375 -58.75 L 93.21875 -113.09375 C 94.71875 -116.15625 96.523438 -117.703125 98.640625 -117.734375 C 100.765625 -117.773438 102.644531 -116.226562 104.28125 -113.09375 L 132.375 -58.65625 L 156.5625 -110.0625 C 157.082031 -111.164062 157.71875 -111.945312 158.46875 -112.40625 C 159.226562 -112.863281 160.160156 -113.09375 161.265625 -113.09375 Z M 161.265625 -113.09375 "/></g></g><g style="fill:#f5f5f5;fill-opacity:1;"><g transform="translate(576.615384, 224.50706)"><path style="stroke:none" d="M 66 -115.546875 C 74.351562 -115.546875 81.921875 -114.1875 88.703125 -111.46875 C 95.492188 -108.757812 101.304688 -104.84375 106.140625 -99.71875 C 110.972656 -94.601562 114.675781 -88.421875 117.25 -81.171875 C 119.832031 -73.921875 121.125 -65.726562 121.125 -56.59375 C 121.125 -54.695312 120.828125 -53.273438 120.234375 -52.328125 C 119.648438 -51.390625 118.347656 -50.921875 116.328125 -50.921875 L 43.96875 -50.921875 C 44.164062 -45.628906 45.503906 -41.300781 47.984375 -37.9375 C 50.460938 -34.582031 53.609375 -32.101562 57.421875 -30.5 C 61.242188 -28.90625 65.242188 -28.109375 69.421875 -28.109375 C 73.535156 -28.109375 77.84375 -28.789062 82.34375 -30.15625 C 86.851562 -31.53125 91.359375 -33.585938 95.859375 -36.328125 C 98.140625 -37.566406 99.9375 -37.207031 101.25 -35.25 L 114.953125 -16.84375 C 115.734375 -15.863281 115.976562 -14.847656 115.6875 -13.796875 C 115.394531 -12.753906 114.53125 -11.78125 113.09375 -10.875 C 105.71875 -6.238281 98.191406 -2.859375 90.515625 -0.734375 C 82.847656 1.390625 75.394531 2.453125 68.15625 2.453125 C 60.050781 2.453125 52.425781 1.128906 45.28125 -1.515625 C 38.132812 -4.160156 31.851562 -8.007812 26.4375 -13.0625 C 21.019531 -18.125 16.757812 -24.3125 13.65625 -31.625 C 10.5625 -38.9375 9.015625 -47.257812 9.015625 -56.59375 C 9.015625 -65.726562 10.414062 -73.921875 13.21875 -81.171875 C 16.019531 -88.421875 19.96875 -94.601562 25.0625 -99.71875 C 30.15625 -104.84375 36.175781 -108.757812 43.125 -111.46875 C 50.082031 -114.1875 57.707031 -115.546875 66 -115.546875 Z M 66.96875 -87.828125 C 64.550781 -87.828125 61.90625 -87.414062 59.03125 -86.59375 C 56.164062 -85.78125 53.523438 -84.347656 51.109375 -82.296875 C 48.691406 -80.242188 46.929688 -77.289062 45.828125 -73.4375 L 85.09375 -73.4375 C 84.4375 -77.21875 83.144531 -80.132812 81.21875 -82.1875 C 79.289062 -84.25 77.070312 -85.703125 74.5625 -86.546875 C 72.050781 -87.398438 69.519531 -87.828125 66.96875 -87.828125 Z M 66.96875 -87.828125 "/></g></g><g style="fill:#f5f5f5;fill-opacity:1;"><g transform="translate(706.542677, 224.50706)"><path style="stroke:none" d="M 112.703125 0 L 10.671875 0 C 9.035156 0 7.957031 -0.488281 7.4375 -1.46875 C 6.914062 -2.445312 7.113281 -3.554688 8.03125 -4.796875 L 60.3125 -83.03125 L 13.609375 -83.03125 C 10.929688 -83.03125 9.59375 -84.367188 9.59375 -87.046875 L 9.59375 -109.078125 C 9.59375 -111.753906 10.929688 -113.09375 13.609375 -113.09375 L 110.453125 -113.09375 C 112.078125 -113.09375 113.117188 -112.648438 113.578125 -111.765625 C 114.035156 -110.890625 113.875 -109.734375 113.09375 -108.296875 L 65.609375 -31.234375 L 112.703125 -31.234375 C 115.378906 -31.234375 116.71875 -29.925781 116.71875 -27.3125 L 116.71875 -4.015625 C 116.71875 -1.335938 115.378906 0 112.703125 0 Z M 112.703125 0 "/></g></g><g style="fill:#f5f5f5;fill-opacity:1;"><g transform="translate(830.889001, 224.50706)"><path style="stroke:none" d="M 70.59375 2.453125 C 61.582031 2.453125 53.289062 1.015625 45.71875 -1.859375 C 38.15625 -4.734375 31.597656 -8.8125 26.046875 -14.09375 C 20.492188 -19.382812 16.195312 -25.632812 13.15625 -32.84375 C 10.125 -40.0625 8.609375 -47.976562 8.609375 -56.59375 C 8.609375 -65.207031 10.125 -73.101562 13.15625 -80.28125 C 16.195312 -87.46875 20.492188 -93.703125 26.046875 -98.984375 C 31.597656 -104.273438 38.15625 -108.359375 45.71875 -111.234375 C 53.289062 -114.109375 61.582031 -115.546875 70.59375 -115.546875 C 79.738281 -115.546875 88.113281 -114.109375 95.71875 -111.234375 C 103.320312 -108.359375 109.910156 -104.273438 115.484375 -98.984375 C 121.066406 -93.703125 125.375 -87.46875 128.40625 -80.28125 C 131.445312 -73.101562 132.96875 -65.207031 132.96875 -56.59375 C 132.96875 -47.976562 131.445312 -40.0625 128.40625 -32.84375 C 125.375 -25.632812 121.066406 -19.382812 115.484375 -14.09375 C 109.910156 -8.8125 103.320312 -4.734375 95.71875 -1.859375 C 88.113281 1.015625 79.738281 2.453125 70.59375 2.453125 Z M 70.59375 -28.6875 C 76.082031 -28.6875 80.765625 -29.941406 84.640625 -32.453125 C 88.523438 -34.972656 91.492188 -38.335938 93.546875 -42.546875 C 95.609375 -46.753906 96.640625 -51.4375 96.640625 -56.59375 C 96.640625 -61.75 95.609375 -66.414062 93.546875 -70.59375 C 91.492188 -74.769531 88.523438 -78.113281 84.640625 -80.625 C 80.765625 -83.144531 76.082031 -84.40625 70.59375 -84.40625 C 65.3125 -84.40625 60.757812 -83.144531 56.9375 -80.625 C 53.113281 -78.113281 50.15625 -74.769531 48.0625 -70.59375 C 45.976562 -66.414062 44.9375 -61.75 44.9375 -56.59375 C 44.9375 -51.4375 45.976562 -46.753906 48.0625 -42.546875 C 50.15625 -38.335938 53.113281 -34.972656 56.9375 -32.453125 C 60.757812 -29.941406 65.3125 -28.6875 70.59375 -28.6875 Z M 70.59375 -28.6875 "/></g></g></g></svg>