<svg xmlns="http://www.w3.org/2000/svg" xmlns:xlink="http://www.w3.org/1999/xlink" width="1584" zoomAndPan="magnify" viewBox="0 0 1188 296.999993" height="396" preserveAspectRatio="xMidYMid meet" version="1.2"><metadata><ContainsAiGeneratedContent>Yes</ContainsAiGeneratedContent></metadata><defs/><g id="d00651837a"><g style="fill:#f39d28;fill-opacity:1;"><g transform="translate(176.990172, 230.213805)"><path style="stroke:none" d="M 81.375 4.015625 C 74.1875 4.015625 67.25 3.359375 60.5625 2.046875 C 53.875 0.742188 47.671875 -1.289062 41.953125 -4.0625 C 36.242188 -6.832031 31.25 -10.375 26.96875 -14.6875 C 22.695312 -19 19.367188 -24.140625 16.984375 -30.109375 C 14.609375 -36.078125 13.421875 -42.945312 13.421875 -50.71875 L 13.421875 -146.390625 C 13.421875 -149.066406 14.753906 -150.40625 17.421875 -150.40625 L 50.53125 -150.40625 C 53.195312 -150.40625 54.53125 -149.066406 54.53125 -146.390625 L 54.53125 -61.390625 C 54.53125 -51.078125 56.832031 -43.617188 61.4375 -39.015625 C 66.039062 -34.410156 72.6875 -32.109375 81.375 -32.109375 C 90.25 -32.109375 96.953125 -34.410156 101.484375 -39.015625 C 106.023438 -43.617188 108.296875 -51.078125 108.296875 -61.390625 L 108.296875 -146.390625 C 108.296875 -149.066406 109.632812 -150.40625 112.3125 -150.40625 L 145.40625 -150.40625 C 148.082031 -150.40625 149.421875 -149.066406 149.421875 -146.390625 L 149.421875 -50.71875 C 149.421875 -40.988281 147.625 -32.664062 144.03125 -25.75 C 140.445312 -18.832031 135.519531 -13.171875 129.25 -8.765625 C 122.976562 -4.359375 115.726562 -1.128906 107.5 0.921875 C 99.28125 2.984375 90.570312 4.015625 81.375 4.015625 Z M 81.375 4.015625 "/></g><g transform="translate(339.826932, 230.213805)"><path style="stroke:none" d="M 185.84375 -150.40625 L 221.1875 -150.40625 C 222.5 -150.40625 223.507812 -149.960938 224.21875 -149.078125 C 224.9375 -148.191406 224.941406 -147.03125 224.234375 -145.59375 L 155.203125 0 C 153.691406 3.070312 151.84375 4.609375 149.65625 4.609375 C 147.476562 4.609375 145.734375 3.070312 144.421875 0 L 113.6875 -73.4375 L 83.03125 0 C 81.726562 3.070312 79.96875 4.609375 77.75 4.609375 C 75.53125 4.609375 73.664062 3.070312 72.15625 0 L 3.234375 -145.59375 C 2.515625 -147.03125 2.460938 -148.191406 3.078125 -149.078125 C 3.703125 -149.960938 4.734375 -150.40625 6.171875 -150.40625 L 41.515625 -150.40625 C 42.492188 -150.40625 43.40625 -150.125 44.25 -149.5625 C 45.101562 -149.007812 45.726562 -148.210938 46.125 -147.171875 L 77.546875 -74.609375 L 108.296875 -149.21875 C 108.679688 -150.195312 109.234375 -150.960938 109.953125 -151.515625 C 110.671875 -152.078125 111.648438 -152.359375 112.890625 -152.359375 C 115.109375 -152.359375 116.644531 -151.3125 117.5 -149.21875 L 149.8125 -74.515625 L 181.234375 -147.171875 C 182.148438 -149.328125 183.6875 -150.40625 185.84375 -150.40625 Z M 185.84375 -150.40625 "/></g><g transform="translate(567.191306, 230.213805)"><path style="stroke:none" d="M 112.5 0 L 18.890625 0 C 16.222656 0 14.890625 -1.335938 14.890625 -4.015625 L 14.890625 -146.390625 C 14.890625 -149.066406 16.222656 -150.40625 18.890625 -150.40625 L 112.5 -150.40625 C 115.175781 -150.40625 116.515625 -149.066406 116.515625 -146.390625 L 116.515625 -120.34375 C 116.515625 -117.664062 115.175781 -116.328125 112.5 -116.328125 L 54.9375 -116.328125 L 54.9375 -83.8125 L 104.671875 -83.8125 C 107.347656 -83.8125 108.6875 -82.472656 108.6875 -79.796875 L 108.6875 -55.71875 C 108.6875 -53.039062 107.347656 -51.703125 104.671875 -51.703125 L 54.9375 -51.703125 L 54.9375 -34.078125 L 112.5 -34.078125 C 115.175781 -34.078125 116.515625 -32.738281 116.515625 -30.0625 L 116.515625 -4.015625 C 116.515625 -1.335938 115.175781 0 112.5 0 Z M 112.5 0 "/></g></g><g style="fill:#f39d28;fill-opacity:1;"><g transform="translate(695.169458, 230.213805)"><path style="stroke:none" d="M 69.90625 -34.078125 L 134.921875 -34.078125 C 137.597656 -34.078125 138.9375 -32.738281 138.9375 -30.0625 L 138.9375 -4.015625 C 138.9375 -1.335938 137.597656 0 134.921875 0 L 8.609375 0 C 6.984375 0 5.910156 -0.488281 5.390625 -1.46875 C 4.867188 -2.445312 5 -3.554688 5.78125 -4.796875 L 71.1875 -116.328125 L 18.609375 -116.328125 C 15.992188 -116.328125 14.6875 -117.664062 14.6875 -120.34375 L 14.6875 -146.390625 C 14.6875 -149.066406 15.992188 -150.40625 18.609375 -150.40625 L 132.78125 -150.40625 C 134.40625 -150.40625 135.476562 -149.929688 136 -148.984375 C 136.519531 -148.035156 136.359375 -146.90625 135.515625 -145.59375 Z M 69.90625 -34.078125 "/></g></g><g style="fill:#f39d28;fill-opacity:1;"><g transform="translate(840.576891, 230.213805)"><path style="stroke:none" d="M 90.28125 4.015625 C 78.070312 4.015625 66.957031 2.171875 56.9375 -1.515625 C 46.914062 -5.203125 38.332031 -10.503906 31.1875 -17.421875 C 24.039062 -24.347656 18.523438 -32.6875 14.640625 -42.4375 C 10.753906 -52.195312 8.8125 -63.117188 8.8125 -75.203125 C 8.8125 -87.273438 10.753906 -98.191406 14.640625 -107.953125 C 18.523438 -117.710938 24.039062 -126.050781 31.1875 -132.96875 C 38.332031 -139.882812 46.914062 -145.1875 56.9375 -148.875 C 66.957031 -152.5625 78.070312 -154.40625 90.28125 -154.40625 C 102.550781 -154.40625 113.695312 -152.5625 123.71875 -148.875 C 133.738281 -145.1875 142.351562 -139.882812 149.5625 -132.96875 C 156.78125 -126.050781 162.328125 -117.710938 166.203125 -107.953125 C 170.085938 -98.191406 172.03125 -87.273438 172.03125 -75.203125 C 172.03125 -63.117188 170.085938 -52.195312 166.203125 -42.4375 C 162.328125 -32.6875 156.78125 -24.347656 149.5625 -17.421875 C 142.351562 -10.503906 133.738281 -5.203125 123.71875 -1.515625 C 113.695312 2.171875 102.550781 4.015625 90.28125 4.015625 Z M 90.28125 -32.109375 C 98.632812 -32.109375 105.941406 -33.851562 112.203125 -37.34375 C 118.472656 -40.84375 123.335938 -45.804688 126.796875 -52.234375 C 130.253906 -58.660156 131.984375 -66.316406 131.984375 -75.203125 C 131.984375 -84.078125 130.253906 -91.726562 126.796875 -98.15625 C 123.335938 -104.59375 118.472656 -109.554688 112.203125 -113.046875 C 105.941406 -116.535156 98.632812 -118.28125 90.28125 -118.28125 C 81.988281 -118.28125 74.738281 -116.535156 68.53125 -113.046875 C 62.332031 -109.554688 57.519531 -104.59375 54.09375 -98.15625 C 50.664062 -91.726562 48.953125 -84.078125 48.953125 -75.203125 C 48.953125 -66.316406 50.664062 -58.660156 54.09375 -52.234375 C 57.519531 -45.804688 62.332031 -40.84375 68.53125 -37.34375 C 74.738281 -33.851562 81.988281 -32.109375 90.28125 -32.109375 Z M 90.28125 -32.109375 "/></g></g><g style="fill:#03264d;fill-opacity:1;"><g transform="translate(171.672629, 224.896259)"><path style="stroke:none" d="M 81.375 4.015625 C 74.1875 4.015625 67.25 3.359375 60.5625 2.046875 C 53.875 0.742188 47.671875 -1.289062 41.953125 -4.0625 C 36.242188 -6.832031 31.25 -10.375 26.96875 -14.6875 C 22.695312 -19 19.367188 -24.140625 16.984375 -30.109375 C 14.609375 -36.078125 13.421875 -42.945312 13.421875 -50.71875 L 13.421875 -146.390625 C 13.421875 -149.066406 14.753906 -150.40625 17.421875 -150.40625 L 50.53125 -150.40625 C 53.195312 -150.40625 54.53125 -149.066406 54.53125 -146.390625 L 54.53125 -61.390625 C 54.53125 -51.078125 56.832031 -43.617188 61.4375 -39.015625 C 66.039062 -34.410156 72.6875 -32.109375 81.375 -32.109375 C 90.25 -32.109375 96.953125 -34.410156 101.484375 -39.015625 C 106.023438 -43.617188 108.296875 -51.078125 108.296875 -61.390625 L 108.296875 -146.390625 C 108.296875 -149.066406 109.632812 -150.40625 112.3125 -150.40625 L 145.40625 -150.40625 C 148.082031 -150.40625 149.421875 -149.066406 149.421875 -146.390625 L 149.421875 -50.71875 C 149.421875 -40.988281 147.625 -32.664062 144.03125 -25.75 C 140.445312 -18.832031 135.519531 -13.171875 129.25 -8.765625 C 122.976562 -4.359375 115.726562 -1.128906 107.5 0.921875 C 99.28125 2.984375 90.570312 4.015625 81.375 4.015625 Z M 81.375 4.015625 "/></g><g transform="translate(334.509389, 224.896259)"><path style="stroke:none" d="M 185.84375 -150.40625 L 221.1875 -150.40625 C 222.5 -150.40625 223.507812 -149.960938 224.21875 -149.078125 C 224.9375 -148.191406 224.941406 -147.03125 224.234375 -145.59375 L 155.203125 0 C 153.691406 3.070312 151.84375 4.609375 149.65625 4.609375 C 147.476562 4.609375 145.734375 3.070312 144.421875 0 L 113.6875 -73.4375 L 83.03125 0 C 81.726562 3.070312 79.96875 4.609375 77.75 4.609375 C 75.53125 4.609375 73.664062 3.070312 72.15625 0 L 3.234375 -145.59375 C 2.515625 -147.03125 2.460938 -148.191406 3.078125 -149.078125 C 3.703125 -149.960938 4.734375 -150.40625 6.171875 -150.40625 L 41.515625 -150.40625 C 42.492188 -150.40625 43.40625 -150.125 44.25 -149.5625 C 45.101562 -149.007812 45.726562 -148.210938 46.125 -147.171875 L 77.546875 -74.609375 L 108.296875 -149.21875 C 108.679688 -150.195312 109.234375 -150.960938 109.953125 -151.515625 C 110.671875 -152.078125 111.648438 -152.359375 112.890625 -152.359375 C 115.109375 -152.359375 116.644531 -151.3125 117.5 -149.21875 L 149.8125 -74.515625 L 181.234375 -147.171875 C 182.148438 -149.328125 183.6875 -150.40625 185.84375 -150.40625 Z M 185.84375 -150.40625 "/></g><g transform="translate(561.873763, 224.896259)"><path style="stroke:none" d="M 112.5 0 L 18.890625 0 C 16.222656 0 14.890625 -1.335938 14.890625 -4.015625 L 14.890625 -146.390625 C 14.890625 -149.066406 16.222656 -150.40625 18.890625 -150.40625 L 112.5 -150.40625 C 115.175781 -150.40625 116.515625 -149.066406 116.515625 -146.390625 L 116.515625 -120.34375 C 116.515625 -117.664062 115.175781 -116.328125 112.5 -116.328125 L 54.9375 -116.328125 L 54.9375 -83.8125 L 104.671875 -83.8125 C 107.347656 -83.8125 108.6875 -82.472656 108.6875 -79.796875 L 108.6875 -55.71875 C 108.6875 -53.039062 107.347656 -51.703125 104.671875 -51.703125 L 54.9375 -51.703125 L 54.9375 -34.078125 L 112.5 -34.078125 C 115.175781 -34.078125 116.515625 -32.738281 116.515625 -30.0625 L 116.515625 -4.015625 C 116.515625 -1.335938 115.175781 0 112.5 0 Z M 112.5 0 "/></g></g><g style="fill:#03264d;fill-opacity:1;"><g transform="translate(689.851916, 224.896259)"><path style="stroke:none" d="M 69.90625 -34.078125 L 134.921875 -34.078125 C 137.597656 -34.078125 138.9375 -32.738281 138.9375 -30.0625 L 138.9375 -4.015625 C 138.9375 -1.335938 137.597656 0 134.921875 0 L 8.609375 0 C 6.984375 0 5.910156 -0.488281 5.390625 -1.46875 C 4.867188 -2.445312 5 -3.554688 5.78125 -4.796875 L 71.1875 -116.328125 L 18.609375 -116.328125 C 15.992188 -116.328125 14.6875 -117.664062 14.6875 -120.34375 L 14.6875 -146.390625 C 14.6875 -149.066406 15.992188 -150.40625 18.609375 -150.40625 L 132.78125 -150.40625 C 134.40625 -150.40625 135.476562 -149.929688 136 -148.984375 C 136.519531 -148.035156 136.359375 -146.90625 135.515625 -145.59375 Z M 69.90625 -34.078125 "/></g></g><g style="fill:#03264d;fill-opacity:1;"><g transform="translate(835.259349, 224.896259)"><path style="stroke:none" d="M 90.28125 4.015625 C 78.070312 4.015625 66.957031 2.171875 56.9375 -1.515625 C 46.914062 -5.203125 38.332031 -10.503906 31.1875 -17.421875 C 24.039062 -24.347656 18.523438 -32.6875 14.640625 -42.4375 C 10.753906 -52.195312 8.8125 -63.117188 8.8125 -75.203125 C 8.8125 -87.273438 10.753906 -98.191406 14.640625 -107.953125 C 18.523438 -117.710938 24.039062 -126.050781 31.1875 -132.96875 C 38.332031 -139.882812 46.914062 -145.1875 56.9375 -148.875 C 66.957031 -152.5625 78.070312 -154.40625 90.28125 -154.40625 C 102.550781 -154.40625 113.695312 -152.5625 123.71875 -148.875 C 133.738281 -145.1875 142.351562 -139.882812 149.5625 -132.96875 C 156.78125 -126.050781 162.328125 -117.710938 166.203125 -107.953125 C 170.085938 -98.191406 172.03125 -87.273438 172.03125 -75.203125 C 172.03125 -63.117188 170.085938 -52.195312 166.203125 -42.4375 C 162.328125 -32.6875 156.78125 -24.347656 149.5625 -17.421875 C 142.351562 -10.503906 133.738281 -5.203125 123.71875 -1.515625 C 113.695312 2.171875 102.550781 4.015625 90.28125 4.015625 Z M 90.28125 -32.109375 C 98.632812 -32.109375 105.941406 -33.851562 112.203125 -37.34375 C 118.472656 -40.84375 123.335938 -45.804688 126.796875 -52.234375 C 130.253906 -58.660156 131.984375 -66.316406 131.984375 -75.203125 C 131.984375 -84.078125 130.253906 -91.726562 126.796875 -98.15625 C 123.335938 -104.59375 118.472656 -109.554688 112.203125 -113.046875 C 105.941406 -116.535156 98.632812 -118.28125 90.28125 -118.28125 C 81.988281 -118.28125 74.738281 -116.535156 68.53125 -113.046875 C 62.332031 -109.554688 57.519531 -104.59375 54.09375 -98.15625 C 50.664062 -91.726562 48.953125 -84.078125 48.953125 -75.203125 C 48.953125 -66.316406 50.664062 -58.660156 54.09375 -52.234375 C 57.519531 -45.804688 62.332031 -40.84375 68.53125 -37.34375 C 74.738281 -33.851562 81.988281 -32.109375 90.28125 -32.109375 Z M 90.28125 -32.109375 "/></g></g></g></svg>