<svg xmlns="http://www.w3.org/2000/svg" xmlns:xlink="http://www.w3.org/1999/xlink" width="500" zoomAndPan="magnify" viewBox="0 0 375 374.999991" height="500" preserveAspectRatio="xMidYMid meet" version="1.2"><defs><clipPath id="b28315ad3c"><path d="M 74 49.640625 L 300 49.640625 L 300 199 L 74 199 Z M 74 49.640625 "/></clipPath><clipPath id="a84f6e6e09"><path d="M 139 254 L 206 254 L 206 325.640625 L 139 325.640625 Z M 139 254 "/></clipPath><clipPath id="4092667deb"><path d="M 267 255 L 337.5 255 L 337.5 325.640625 L 267 325.640625 Z M 267 255 "/></clipPath><clipPath id="83ccd492d7"><path d="M 168 49.640625 L 300 49.640625 L 300 112 L 168 112 Z M 168 49.640625 "/></clipPath><clipPath id="d8efccb7de"><path d="M 250 49.640625 L 300 49.640625 L 300 112 L 250 112 Z M 250 49.640625 "/></clipPath><clipPath id="350a744b25"><path d="M 272 308 L 312 308 L 312 325.640625 L 272 325.640625 Z M 272 308 "/></clipPath><clipPath id="c145052d4e"><path d="M 149 293 L 182 293 L 182 325.640625 L 149 325.640625 Z M 149 293 "/></clipPath><clipPath id="222c53d6f1"><path d="M 295 274 L 322 274 L 322 325.640625 L 295 325.640625 Z M 295 274 "/></clipPath></defs><g id="51a06e92a6"><g clip-rule="nonzero" clip-path="url(#b28315ad3c)"><path style=" stroke:none;fill-rule:nonzero;fill:#235aab;fill-opacity:1;" d="M 84.421875 50.15625 C 90.597656 50.105469 90.597656 50.105469 92.8125 50.121094 C 94.605469 50.125 96.402344 50.101562 98.199219 50.074219 L 101.65625 50.074219 L 104.808594 50.070312 C 108.3125 50.59375 110.164062 51.808594 112.933594 53.976562 C 117.621094 58.707031 120.457031 64.65625 123.609375 70.46875 L 125.347656 73.636719 C 126.207031 75.199219 127.0625 76.761719 127.917969 78.324219 C 130.089844 82.292969 132.300781 86.238281 134.554688 90.160156 L 136.152344 92.9375 L 137.210938 94.769531 C 139 92.097656 140.789062 89.417969 142.574219 86.742188 L 144.226562 84.273438 C 147.015625 80.082031 149.789062 75.882812 152.511719 71.652344 L 154.023438 69.308594 C 154.96875 67.839844 155.910156 66.367188 156.847656 64.890625 C 164.015625 53.734375 164.015625 53.734375 169.011719 51.128906 C 173.316406 49.800781 177.84375 50 182.3125 50.054688 C 184.085938 50.074219 185.855469 50.054688 187.628906 50.03125 L 191.054688 50.046875 L 194.15625 50.058594 C 197.65625 50.601562 199.496094 51.765625 202.238281 53.976562 C 203.671875 55.644531 203.671875 55.644531 204.785156 57.421875 L 206.089844 59.5 C 208.648438 63.835938 211.09375 68.222656 213.511719 72.640625 L 215.203125 75.703125 C 216.367188 77.8125 217.53125 79.921875 218.691406 82.03125 C 221.507812 87.152344 224.332031 92.265625 227.167969 97.375 L 228.703125 100.167969 L 230.132812 102.746094 L 231.382812 105.007812 C 232.503906 106.789062 233.632812 108.117188 235.1875 109.527344 L 235.757812 107.527344 C 237.382812 103.042969 239.515625 98.855469 241.648438 94.589844 L 243.0625 91.75 C 244.050781 89.769531 245.039062 87.792969 246.027344 85.8125 C 247.53125 82.804688 249.027344 79.792969 250.519531 76.78125 L 253.410156 70.992188 L 254.746094 68.289062 C 261.367188 55.125 261.367188 55.125 265.933594 51.347656 C 270.621094 49.558594 275.703125 50.0625 280.652344 50.074219 L 284.09375 50 C 292.203125 49.980469 292.203125 49.980469 295.195312 51.441406 C 297.03125 52.933594 298.292969 54.46875 299.347656 56.582031 C 300.054688 59.890625 299.90625 62.800781 299.347656 66.128906 C 297.609375 70.992188 295.179688 75.574219 292.8125 80.152344 C 291.316406 83.078125 289.835938 86.011719 288.375 88.957031 L 287.488281 90.730469 L 285.609375 94.496094 C 283.804688 98.113281 282 101.730469 280.191406 105.347656 L 277.867188 110.007812 L 273.144531 119.457031 L 271.972656 121.800781 L 269.675781 126.402344 C 267.914062 129.921875 266.15625 133.445312 264.40625 136.972656 L 263.464844 138.863281 C 262.894531 140.003906 262.328125 141.144531 261.761719 142.289062 C 259.949219 145.929688 258.046875 149.511719 256.105469 153.085938 C 253.234375 158.382812 250.640625 163.792969 248.085938 169.25 C 239.527344 187.351562 239.527344 187.351562 230.851562 193.714844 C 226.664062 196.265625 222.785156 197.945312 217.847656 198.175781 L 214.777344 198.195312 L 213.074219 198.207031 C 211.222656 198.21875 209.375 198.226562 207.523438 198.230469 L 203.65625 198.246094 C 200.957031 198.253906 198.257812 198.257812 195.554688 198.261719 C 192.097656 198.265625 188.640625 198.289062 185.183594 198.3125 C 182.519531 198.328125 179.863281 198.332031 177.199219 198.335938 C 175.925781 198.335938 174.648438 198.34375 173.375 198.355469 C 171.59375 198.371094 169.808594 198.367188 168.027344 198.363281 L 164.957031 198.371094 C 162.355469 198.054688 162.355469 198.054688 160.289062 196.914062 L 158.886719 195.449219 C 158.507812 192.570312 158.507812 192.570312 158.886719 189.375 C 159.984375 186.789062 159.984375 186.789062 161.519531 184.25 L 163.214844 181.425781 L 165.011719 178.527344 L 166.734375 175.625 C 169.902344 170.429688 173.085938 165.359375 177.960938 161.601562 C 180.527344 160.746094 182.316406 160.601562 184.996094 160.550781 C 185.863281 160.523438 186.734375 160.5 187.625 160.476562 C 189.445312 160.429688 191.265625 160.390625 193.085938 160.359375 C 196.945312 160.242188 199.984375 160.066406 203.613281 158.671875 C 205.851562 157.289062 205.851562 157.289062 207.765625 154.984375 C 209.316406 151.765625 209.519531 149.839844 209.445312 146.339844 C 208.976562 142.714844 207.347656 139.890625 205.542969 136.757812 L 204.382812 134.644531 C 203.105469 132.339844 201.8125 130.042969 200.503906 127.75 L 197.664062 122.671875 C 194.878906 117.695312 192.058594 112.742188 189.234375 107.789062 L 186.976562 103.824219 C 185.417969 101.09375 183.859375 98.363281 182.296875 95.640625 C 176.777344 104.152344 171.285156 112.6875 165.824219 121.242188 C 160.796875 129.113281 155.757812 136.976562 150.671875 144.808594 C 149.683594 146.332031 148.695312 147.855469 147.710938 149.378906 C 145.929688 152.136719 144.144531 154.890625 142.359375 157.640625 L 140.636719 160.308594 L 139.023438 162.792969 L 137.582031 165.011719 C 136.34375 166.808594 136.34375 166.808594 134.609375 168.542969 C 132.335938 168.652344 132.335938 168.652344 130.273438 168.542969 C 123.621094 156.246094 117.03125 143.914062 110.496094 131.550781 L 109.507812 129.675781 L 105.511719 122.117188 C 101.976562 115.421875 98.4375 108.730469 94.890625 102.039062 L 93.96875 100.304688 C 90.820312 94.347656 87.636719 88.40625 84.421875 82.480469 L 82.839844 79.570312 C 81.871094 77.789062 80.902344 76.015625 79.929688 74.238281 L 78.636719 71.867188 L 77.515625 69.828125 C 76.023438 66.890625 74.878906 64.261719 74.460938 60.976562 C 74.785156 58.316406 74.785156 58.316406 76.300781 55.550781 C 78.835938 52.378906 80.300781 50.691406 84.421875 50.15625 "/></g><path style=" stroke:none;fill-rule:nonzero;fill:#721a9c;fill-opacity:1;" d="M 38.367188 256.203125 L 54.84375 256.203125 C 56.722656 259.972656 57.992188 262.863281 59.09375 266.808594 L 59.96875 269.914062 L 60.859375 273.128906 L 61.738281 276.261719 C 62.320312 278.347656 62.90625 280.429688 63.484375 282.515625 C 64.925781 287.636719 66.378906 292.753906 67.847656 297.863281 C 69.066406 295.566406 70.042969 293.171875 70.785156 290.679688 L 71.453125 288.488281 L 72.15625 286.140625 L 73.65625 281.214844 C 74.441406 278.628906 75.222656 276.042969 76.003906 273.457031 C 76.757812 270.957031 77.515625 268.457031 78.28125 265.960938 L 78.984375 263.605469 L 79.648438 261.429688 L 80.230469 259.511719 C 80.855469 257.941406 80.855469 257.941406 82.589844 256.203125 C 85.351562 256.003906 85.351562 256.003906 88.65625 256.042969 L 91.964844 256.058594 C 94.726562 256.203125 94.726562 256.203125 96.460938 257.074219 C 97.164062 258.757812 97.164062 258.757812 97.851562 260.996094 L 98.640625 263.523438 L 99.476562 266.269531 L 100.34375 269.070312 C 101.257812 272.03125 102.164062 274.992188 103.070312 277.957031 L 104.925781 283.964844 C 106.449219 288.886719 107.960938 293.808594 109.464844 298.734375 L 109.914062 297.195312 C 111.457031 291.929688 113.003906 286.664062 114.558594 281.402344 C 115.136719 279.433594 115.714844 277.46875 116.289062 275.5 C 117.113281 272.675781 117.945312 269.855469 118.78125 267.035156 L 119.558594 264.355469 L 120.292969 261.882812 L 120.9375 259.699219 C 121.605469 257.941406 121.605469 257.941406 123.339844 256.203125 C 125.84375 256.054688 128.257812 256.003906 130.761719 256.042969 L 132.847656 256.042969 C 134.59375 256.058594 136.335938 256.125 138.078125 256.203125 L 138.945312 257.074219 C 138.5625 261.824219 137.589844 266.078125 136.023438 270.582031 L 135.398438 272.4375 C 134.726562 274.421875 134.046875 276.40625 133.363281 278.390625 C 132.417969 281.183594 131.472656 283.976562 130.53125 286.769531 L 129.804688 288.90625 C 128.199219 293.667969 126.636719 298.445312 125.117188 303.238281 L 124.515625 305.128906 C 123.753906 307.527344 122.996094 309.921875 122.246094 312.320312 C 121.734375 313.953125 121.222656 315.582031 120.703125 317.210938 L 119.832031 319.996094 C 119.003906 322.167969 119.003906 322.167969 117.269531 323.902344 C 115.078125 324.097656 113.011719 324.183594 110.820312 324.175781 L 109.03125 324.214844 C 107.300781 324.21875 107.300781 324.21875 104.265625 323.902344 C 102.914062 322.96875 102.914062 322.96875 101.664062 321.300781 C 100.832031 319.257812 100.082031 317.183594 99.414062 315.085938 L 98.800781 313.230469 C 98.160156 311.277344 97.527344 309.316406 96.894531 307.359375 C 96.46875 306.0625 96.042969 304.769531 95.617188 303.472656 C 93.652344 297.492188 91.730469 291.503906 90.011719 285.445312 C 89.640625 283.964844 89.640625 283.964844 88.65625 283.109375 L 87.742188 286.027344 C 86.617188 289.625 85.488281 293.222656 84.355469 296.820312 L 82.894531 301.476562 C 82.191406 303.71875 81.488281 305.957031 80.78125 308.199219 L 80.132812 310.277344 C 78.773438 314.585938 77.375 318.855469 75.652344 323.035156 C 73.035156 324.34375 70.339844 324.132812 67.46875 324.175781 L 65.679688 324.25 C 63.949219 324.273438 63.949219 324.273438 60.914062 323.902344 C 58.304688 321.222656 57.355469 318.105469 56.183594 314.609375 L 55.59375 312.859375 C 54.953125 310.957031 54.324219 309.050781 53.695312 307.144531 L 52.363281 303.164062 C 51.4375 300.382812 50.515625 297.601562 49.59375 294.820312 C 48.417969 291.257812 47.226562 287.703125 46.035156 284.144531 C 45.117188 281.40625 44.207031 278.664062 43.296875 275.921875 C 42.859375 274.609375 42.421875 273.300781 41.984375 271.988281 C 41.367188 270.152344 40.761719 268.316406 40.160156 266.480469 L 39.109375 263.316406 C 38.367188 260.542969 38.367188 260.542969 38.367188 256.203125 "/><g clip-rule="nonzero" clip-path="url(#a84f6e6e09)"><path style=" stroke:none;fill-rule:nonzero;fill:#4f1ead;fill-opacity:1;" d="M 185.765625 256.746094 C 190.878906 258.957031 195.121094 261.5 198.527344 265.976562 C 202.859375 272.753906 205.332031 280.335938 205.816406 288.378906 C 205.867188 290.09375 205.792969 291.8125 205.707031 293.527344 L 203.972656 295.261719 C 201.953125 295.46875 201.953125 295.46875 199.398438 295.457031 L 196.507812 295.457031 L 193.371094 295.429688 L 190.171875 295.421875 C 186.789062 295.414062 183.40625 295.390625 180.023438 295.371094 C 177.734375 295.359375 175.441406 295.351562 173.152344 295.347656 C 167.53125 295.328125 161.910156 295.296875 156.285156 295.261719 C 156.820312 296.503906 157.359375 297.746094 157.898438 298.984375 L 158.804688 301.078125 C 160.246094 304.101562 161.648438 305.945312 164.089844 308.28125 C 167.476562 310.242188 170.929688 311.050781 174.820312 311.265625 C 179.417969 311.097656 183.472656 309.578125 187.5 307.414062 C 188.675781 306.273438 189.832031 305.117188 190.96875 303.941406 C 192.5625 304.074219 192.5625 304.074219 194.4375 304.808594 C 196.261719 306.320312 196.261719 306.320312 198.066406 308.171875 L 199.894531 310.007812 C 201.371094 311.75 201.371094 311.75 202.238281 314.355469 C 197.925781 319.601562 191.914062 322.140625 185.707031 324.617188 C 179.503906 326.511719 172.351562 326.296875 166.019531 325.234375 C 159.785156 323.570312 154.246094 320.523438 149.34375 316.34375 C 144.722656 311.597656 142.382812 305.941406 140.679688 299.601562 C 139.449219 292.253906 139.371094 285.066406 141.546875 277.902344 C 144.0625 271.460938 147.464844 266.050781 152.875 261.710938 C 162.585938 254.8125 174.335938 252.9375 185.765625 256.746094 M 164.089844 270.089844 C 161.664062 272.160156 159.621094 274.269531 158.019531 277.035156 L 157.152344 283.109375 L 188.367188 283.109375 C 187.984375 276.847656 187.984375 276.847656 186.519531 274.25 C 184.160156 271.601562 182.09375 269.753906 178.773438 268.410156 C 173.398438 266.773438 168.992188 267.308594 164.089844 270.089844 "/></g><g clip-rule="nonzero" clip-path="url(#4092667deb)"><path style=" stroke:none;fill-rule:nonzero;fill:#274ab4;fill-opacity:1;" d="M 314.601562 257.042969 C 320.714844 259.675781 325.867188 262.914062 330.097656 268.109375 C 333.148438 272.652344 335.464844 277.753906 336.628906 283.109375 C 337.5625 298.699219 337.5625 298.699219 334.148438 305.703125 C 332.757812 308.109375 331.363281 310.394531 329.695312 312.621094 L 327.851562 315.222656 C 324.265625 319.394531 319.417969 321.980469 314.34375 323.941406 C 307.917969 325.898438 301.792969 326.386719 295.167969 325.203125 C 288.683594 323.621094 283.117188 321.320312 278.175781 316.761719 C 273.539062 311.875 270.363281 307.074219 268.546875 300.574219 C 267.136719 294.265625 267.425781 286.546875 268.726562 280.234375 C 271.070312 273.390625 274.8125 267.425781 280.054688 262.441406 C 284.328125 258.90625 289.15625 256.996094 294.503906 255.695312 C 301.238281 254.617188 308.140625 254.785156 314.601562 257.042969 M 292.230469 272.285156 C 289.234375 274.75 287.222656 277.9375 285.476562 281.375 C 283.785156 286.300781 284.210938 291.882812 284.609375 296.996094 C 285.5 300.578125 286.847656 303.40625 289.28125 306.183594 C 291.246094 307.976562 293.320312 309.167969 295.71875 310.285156 C 300.097656 311.230469 304.011719 311.535156 308.367188 310.285156 C 311.664062 308.96875 314.273438 307.546875 316.632812 304.863281 C 318.964844 301.394531 320.050781 298.894531 320.480469 294.707031 C 320.644531 289.203125 320.699219 284.136719 318.371094 279.042969 C 316.105469 275.210938 313.585938 273.164062 309.753906 270.957031 C 304.007812 269.042969 297.53125 269.238281 292.230469 272.285156 "/></g><path style=" stroke:none;fill-rule:nonzero;fill:#392fb3;fill-opacity:1;" d="M 212.644531 256.203125 C 214.179688 256.125 215.714844 256.085938 217.25 256.09375 L 220.234375 256.085938 L 223.480469 256.089844 L 226.785156 256.085938 C 229.101562 256.085938 231.414062 256.089844 233.730469 256.09375 C 236.699219 256.09375 239.667969 256.09375 242.636719 256.089844 C 245.464844 256.085938 248.289062 256.085938 251.117188 256.089844 L 254.355469 256.085938 L 257.34375 256.09375 L 259.984375 256.09375 C 262.066406 256.203125 262.066406 256.203125 263.800781 257.074219 C 264.160156 261.484375 264.285156 265.683594 263.800781 270.089844 C 262.320312 273.023438 260.125 274.832031 257.730469 277.035156 C 256.15625 278.84375 254.601562 280.667969 253.070312 282.515625 L 250.585938 285.457031 C 247.144531 289.558594 243.773438 293.714844 240.390625 297.863281 L 231.71875 308.28125 L 263.800781 309.148438 L 263.800781 323.035156 C 256.917969 323.054688 250.039062 323.070312 243.15625 323.078125 C 239.960938 323.085938 236.765625 323.089844 233.570312 323.101562 C 230.492188 323.109375 227.410156 323.113281 224.332031 323.117188 C 223.152344 323.117188 221.972656 323.121094 220.796875 323.125 C 219.152344 323.132812 217.507812 323.132812 215.863281 323.132812 L 213.023438 323.140625 L 210.910156 323.035156 L 210.042969 322.167969 C 209.210938 318.234375 209.210938 314.820312 210.042969 310.882812 C 212.351562 306.835938 215.8125 303.585938 219.023438 300.257812 C 221.238281 297.886719 223.195312 295.339844 225.164062 292.765625 C 228.777344 288.113281 232.441406 283.503906 236.164062 278.933594 L 237.65625 277.089844 C 241.136719 272.8125 241.136719 272.8125 242.125 271.828125 L 239.429688 271.761719 C 236.144531 271.679688 232.859375 271.59375 229.578125 271.503906 C 228.152344 271.464844 226.726562 271.429688 225.304688 271.394531 C 223.261719 271.34375 221.21875 271.292969 219.175781 271.234375 L 217.238281 271.191406 C 215.703125 271.140625 214.171875 271.0625 212.644531 270.960938 L 211.777344 270.089844 C 211.691406 267.914062 211.65625 265.761719 211.667969 263.582031 L 211.660156 261.734375 C 211.660156 260.179688 211.714844 258.625 211.777344 257.074219 Z M 212.644531 256.203125 "/><g clip-rule="nonzero" clip-path="url(#83ccd492d7)"><path style=" stroke:none;fill-rule:nonzero;fill:#17649f;fill-opacity:1;" d="M 171.027344 50.507812 C 174.636719 50.421875 178.242188 50.355469 181.855469 50.316406 C 183.078125 50.296875 184.304688 50.273438 185.53125 50.246094 C 187.300781 50.203125 189.070312 50.183594 190.839844 50.167969 L 194.058594 50.113281 C 197.039062 50.507812 197.039062 50.507812 199.867188 52.046875 C 201.996094 53.78125 203.34375 55.121094 204.785156 57.421875 L 206.089844 59.5 C 208.648438 63.835938 211.09375 68.222656 213.511719 72.640625 L 215.203125 75.703125 C 216.367188 77.8125 217.53125 79.921875 218.691406 82.03125 C 221.507812 87.152344 224.332031 92.265625 227.167969 97.375 L 228.703125 100.167969 L 230.132812 102.746094 L 231.382812 105.007812 C 232.503906 106.789062 233.632812 108.117188 235.1875 109.527344 L 235.757812 107.527344 C 237.382812 103.042969 239.515625 98.855469 241.648438 94.589844 L 243.0625 91.75 C 244.050781 89.769531 245.039062 87.792969 246.027344 85.8125 C 247.53125 82.804688 249.027344 79.792969 250.519531 76.78125 L 253.410156 70.992188 L 254.746094 68.289062 C 261.367188 55.125 261.367188 55.125 265.933594 51.347656 C 270.621094 49.558594 275.703125 50.0625 280.652344 50.074219 L 284.09375 50 C 292.203125 49.980469 292.203125 49.980469 295.195312 51.441406 C 297.03125 52.933594 298.292969 54.46875 299.347656 56.582031 C 300.054688 59.890625 299.90625 62.800781 299.347656 66.128906 C 297.558594 71.132812 295.046875 75.839844 292.613281 80.550781 C 291.320312 83.054688 290.070312 85.582031 288.824219 88.109375 C 287.980469 89.808594 287.128906 91.503906 286.269531 93.195312 C 285.132812 95.445312 284.027344 97.703125 282.949219 99.976562 L 282.136719 101.664062 C 281.40625 103.183594 280.683594 104.710938 279.960938 106.234375 C 278.550781 108.636719 277.414062 109.808594 275.070312 111.261719 C 275.902344 106.210938 278.082031 101.960938 280.273438 97.375 L 281.429688 94.917969 C 283.09375 91.476562 284.464844 88.761719 287.210938 86.089844 C 287.828125 84.265625 287.828125 84.265625 288.078125 82.621094 L 289.8125 82.621094 L 288.945312 79.148438 L 290.679688 78.28125 L 291.4375 75.460938 C 292.4375 72.121094 293.640625 70.46875 295.878906 67.863281 C 296.691406 65.425781 296.863281 63.882812 296.855469 61.355469 L 296.863281 59.320312 C 296.816406 57.289062 296.816406 57.289062 295.878906 54.847656 C 292.773438 53.195312 290.144531 52.894531 286.660156 52.910156 L 283.894531 52.914062 L 281.03125 52.949219 L 278.148438 52.949219 C 273.058594 52.90625 273.058594 52.90625 268.132812 53.976562 C 266.148438 56.203125 266.148438 56.203125 264.179688 58.914062 L 262.117188 61.636719 C 260.394531 64.296875 259.472656 66.574219 258.597656 69.601562 C 257.199219 72.667969 255.582031 75.496094 253.773438 78.335938 C 251.632812 81.71875 250.277344 84.988281 249.058594 88.804688 C 248.191406 91.300781 248.191406 91.300781 246.457031 93.902344 L 244.726562 93.902344 L 245.429688 95.3125 L 245.589844 97.375 C 244.574219 98.707031 243.542969 100.03125 242.414062 101.273438 C 240.878906 103.011719 239.792969 104.90625 238.65625 106.921875 L 236.054688 111.261719 C 234.492188 111.0625 234.492188 111.0625 232.585938 110.394531 C 231.140625 108.691406 231.140625 108.691406 229.824219 106.597656 L 228.484375 104.515625 C 227.382812 102.582031 227.382812 102.582031 226.515625 99.976562 L 225.269531 98.839844 C 223.4375 96.855469 223.027344 94.710938 222.179688 92.167969 L 220.773438 90.757812 L 219.582031 89.5625 L 219.582031 86.089844 L 217.847656 86.089844 L 216.980469 81.75 L 215.246094 81.75 L 214.378906 77.414062 L 212.644531 77.414062 C 210.265625 73.570312 208.753906 70.710938 208.308594 66.128906 L 206.574219 66.128906 L 205.777344 64.574219 C 202.679688 58.582031 202.679688 58.582031 197.90625 53.976562 C 190.324219 51.578125 182.277344 51.976562 174.496094 53.109375 C 172.21875 53.785156 170.5 54.546875 168.425781 55.714844 L 169.292969 53.109375 L 171.027344 53.109375 Z M 171.027344 50.507812 "/></g><path style=" stroke:none;fill-rule:nonzero;fill:#392fb3;fill-opacity:1;" d="M 84.503906 50.210938 C 85.574219 50.222656 86.644531 50.238281 87.75 50.253906 L 89.484375 50.261719 C 91.304688 50.277344 93.125 50.308594 94.945312 50.34375 C 96.179688 50.355469 97.417969 50.371094 98.65625 50.378906 C 101.679688 50.410156 104.707031 50.453125 107.730469 50.507812 L 107.730469 51.375 L 105.730469 51.371094 C 102.730469 51.382812 99.730469 51.433594 96.730469 51.484375 L 93.582031 51.476562 C 90.695312 51.539062 88.019531 51.660156 85.1875 52.242188 C 83.003906 53.804688 82.246094 55.078125 80.855469 57.449219 L 79.226562 58.695312 L 78.253906 60.054688 C 78.472656 63.105469 78.472656 63.105469 79.121094 66.128906 L 79.121094 68.734375 L 80.855469 68.734375 L 82.589844 73.941406 L 84.320312 73.941406 C 84.902344 75.496094 85.480469 77.050781 86.054688 78.605469 L 87.03125 81.230469 C 87.789062 83.488281 87.789062 83.488281 87.789062 85.222656 L 89.523438 85.222656 C 90.253906 86.613281 90.976562 88.003906 91.691406 89.398438 L 92.910156 91.75 C 93.859375 93.902344 93.859375 93.902344 93.859375 96.507812 L 96.460938 97.375 C 97.328125 98.839844 97.328125 98.839844 98.195312 100.847656 L 99.605469 103.503906 C 100.796875 106.054688 100.796875 106.054688 100.796875 108.65625 L 102.53125 108.65625 L 103.234375 111.53125 C 104.226562 114.621094 104.6875 115.253906 106.867188 117.335938 C 107.460938 119.667969 107.460938 119.667969 107.730469 121.675781 L 109.464844 121.675781 L 109.683594 124.117188 L 110.332031 126.882812 C 111.464844 127.785156 112.621094 128.65625 113.800781 129.488281 C 115.320312 132.089844 115.320312 132.089844 116.402344 134.695312 L 116.402344 137.300781 L 118.136719 137.300781 L 118.136719 143.375 L 120.738281 143.375 L 120.738281 146.847656 L 123.339844 147.714844 C 124.167969 149.925781 124.660156 152.144531 125.207031 154.441406 L 125.941406 156.394531 L 128.542969 157.261719 C 129.554688 158.773438 129.554688 158.773438 130.4375 160.625 L 131.34375 162.460938 C 132.007812 164.203125 132.007812 164.203125 132.007812 166.808594 L 134.609375 166.808594 L 134.914062 165.304688 C 135.53125 163.152344 136.40625 161.546875 137.589844 159.648438 L 138.726562 157.789062 L 139.8125 156.394531 L 141.546875 156.394531 L 141.925781 154.765625 C 142.414062 152.921875 142.414062 152.921875 143.28125 151.1875 L 145.015625 151.1875 L 145.179688 148.417969 L 145.882812 145.109375 C 147.832031 142.996094 147.832031 142.996094 150.21875 140.769531 C 151.390625 139.074219 152.449219 137.335938 153.507812 135.566406 C 154.933594 133.195312 156.476562 130.914062 158.019531 128.621094 L 160.621094 129.488281 C 157.988281 133.546875 155.351562 137.605469 152.71875 141.664062 C 150.398438 145.234375 148.082031 148.808594 145.765625 152.382812 L 142.25 157.804688 L 140.550781 160.4375 L 138.964844 162.882812 L 137.558594 165.054688 C 136.34375 166.808594 136.34375 166.808594 134.609375 168.542969 C 132.335938 168.652344 132.335938 168.652344 130.273438 168.542969 C 123.625 156.246094 117.03125 143.914062 110.496094 131.550781 L 109.507812 129.675781 L 105.511719 122.117188 C 101.976562 115.421875 98.4375 108.730469 94.890625 102.039062 L 93.96875 100.304688 C 89.355469 91.578125 84.675781 82.890625 79.929688 74.238281 L 78.636719 71.867188 L 77.515625 69.828125 C 76.023438 66.890625 74.878906 64.261719 74.460938 60.976562 C 74.785156 58.316406 74.785156 58.316406 76.300781 55.550781 C 78.878906 52.324219 80.292969 50.65625 84.503906 50.210938 M 207.441406 155.527344 L 207.441406 158.128906 C 205.816406 160.40625 205.816406 160.40625 203.105469 162.46875 C 200.234375 163.152344 197.378906 163.214844 194.4375 163.335938 C 192.539062 163.511719 190.644531 163.695312 188.746094 163.878906 C 187.175781 164.027344 185.605469 164.148438 184.03125 164.203125 L 183.164062 163.335938 C 180.714844 164.15625 178.964844 164.957031 176.988281 166.644531 C 175.289062 168.628906 174.089844 170.640625 172.761719 172.882812 C 171.214844 175.3125 169.65625 177.734375 168.097656 180.15625 C 166.941406 182.011719 165.894531 183.929688 164.957031 185.902344 C 163.945312 188.011719 162.789062 190.035156 161.488281 191.976562 C 161.757812 194.273438 161.757812 194.273438 162.355469 196.316406 L 165.644531 196.238281 C 205.941406 195.269531 205.941406 195.269531 225.648438 195.449219 C 223.914062 197.1875 223.914062 197.1875 222.429688 197.71875 C 219.855469 198.152344 217.382812 198.179688 214.777344 198.195312 L 213.074219 198.207031 C 211.222656 198.21875 209.375 198.226562 207.523438 198.230469 L 203.65625 198.246094 C 200.957031 198.253906 198.257812 198.257812 195.554688 198.261719 C 192.097656 198.265625 188.640625 198.289062 185.183594 198.3125 C 182.519531 198.328125 179.863281 198.332031 177.199219 198.335938 C 175.925781 198.335938 174.648438 198.34375 173.375 198.355469 C 171.59375 198.367188 169.808594 198.371094 168.027344 198.363281 L 164.957031 198.371094 C 162.355469 198.054688 162.355469 198.054688 160.289062 196.914062 L 158.886719 195.449219 C 158.507812 192.570312 158.507812 192.570312 158.886719 189.375 C 159.984375 186.789062 159.984375 186.789062 161.519531 184.25 L 163.214844 181.425781 L 165.011719 178.527344 L 166.734375 175.625 C 169.902344 170.429688 173.085938 165.359375 177.960938 161.601562 C 180.527344 160.746094 182.316406 160.601562 184.996094 160.550781 L 187.625 160.476562 C 189.445312 160.429688 191.265625 160.390625 193.085938 160.359375 C 196.96875 160.238281 199.988281 160.066406 203.632812 158.636719 C 205.753906 157.328125 205.753906 157.328125 207.441406 155.527344 "/><g clip-rule="nonzero" clip-path="url(#d8efccb7de)"><path style=" stroke:none;fill-rule:nonzero;fill:#177e89;fill-opacity:1;" d="M 278.722656 50.203125 C 279.894531 50.1875 281.066406 50.164062 282.238281 50.132812 C 291.933594 49.859375 291.933594 49.859375 295.207031 51.433594 C 297.039062 52.925781 298.292969 54.46875 299.347656 56.582031 C 300.054688 59.890625 299.90625 62.800781 299.347656 66.128906 C 297.558594 71.132812 295.046875 75.839844 292.613281 80.550781 C 291.320312 83.054688 290.070312 85.582031 288.824219 88.109375 C 287.980469 89.808594 287.128906 91.507812 286.269531 93.199219 C 285.132812 95.445312 284.027344 97.707031 282.949219 99.976562 L 282.136719 101.664062 C 281.40625 103.183594 280.683594 104.710938 279.960938 106.234375 C 278.550781 108.636719 277.414062 109.808594 275.070312 111.261719 C 275.902344 106.210938 278.082031 101.960938 280.273438 97.375 L 281.429688 94.917969 C 283.09375 91.476562 284.464844 88.761719 287.210938 86.089844 C 287.828125 84.265625 287.828125 84.265625 288.078125 82.621094 L 289.8125 82.621094 L 288.945312 79.148438 L 290.679688 78.28125 L 291.4375 75.460938 C 292.4375 72.121094 293.640625 70.46875 295.878906 67.863281 C 296.691406 65.425781 296.863281 63.882812 296.855469 61.355469 L 296.863281 59.320312 C 296.816406 57.289062 296.816406 57.289062 295.878906 54.847656 C 292.773438 53.195312 290.144531 52.894531 286.660156 52.910156 L 283.894531 52.914062 L 281.03125 52.949219 L 278.148438 52.949219 C 273.058594 52.90625 273.058594 52.90625 268.132812 53.976562 C 266.148438 56.203125 266.148438 56.203125 264.179688 58.914062 L 262.117188 61.636719 C 260.394531 64.296875 259.472656 66.574219 258.597656 69.601562 C 256.644531 73.882812 254.195312 77.800781 251.660156 81.75 L 250.792969 79.148438 L 253.394531 74.808594 L 254.148438 71.605469 C 255.054688 67.792969 256.574219 64.570312 258.433594 61.140625 L 259.304688 59.441406 C 261.179688 55.925781 263.046875 53.664062 266.402344 51.375 C 270.035156 49.554688 274.722656 50.238281 278.722656 50.203125 "/></g><path style=" stroke:none;fill-rule:nonzero;fill:#721a9c;fill-opacity:1;" d="M 123.339844 256.203125 C 125.84375 256.054688 128.257812 256.003906 130.761719 256.042969 L 132.847656 256.042969 C 134.59375 256.058594 136.335938 256.125 138.078125 256.203125 L 138.945312 257.074219 C 138.558594 262.09375 137.445312 266.507812 135.808594 271.253906 L 135.132812 273.269531 C 134.421875 275.378906 133.703125 277.480469 132.984375 279.585938 L 131.558594 283.808594 C 130.480469 287.011719 129.394531 290.210938 128.292969 293.40625 C 127.851562 294.726562 127.433594 296.058594 127.03125 297.394531 L 126.378906 299.519531 L 125.808594 301.453125 L 125.074219 303.074219 L 122.472656 304.808594 C 123.097656 301.609375 123.800781 298.425781 124.585938 295.261719 L 125.234375 292.605469 C 125.894531 290.214844 126.726562 288 127.675781 285.714844 C 127.988281 284.5625 128.277344 283.40625 128.542969 282.242188 L 130.273438 282.242188 L 130.546875 280.234375 C 131.726562 273.894531 133.285156 267.988281 136.34375 262.28125 C 136.65625 261.128906 136.949219 259.972656 137.210938 258.808594 C 135.386719 258.859375 133.5625 258.9375 131.738281 259.027344 L 128.660156 259.148438 L 125.941406 259.675781 C 124.214844 261.210938 124.214844 261.210938 123.339844 263.148438 C 123.304688 264.59375 123.304688 266.042969 123.339844 267.488281 C 122.789062 268.660156 122.210938 269.816406 121.605469 270.960938 L 121.226562 272.914062 C 120.234375 277.753906 118.621094 281.839844 115.535156 285.714844 C 116.195312 278.300781 117.199219 271.242188 119.4375 264.125 L 120 262.328125 C 120.832031 259.792969 121.429688 258.117188 123.339844 256.203125 "/><path style=" stroke:none;fill-rule:nonzero;fill:#274ab4;fill-opacity:1;" d="M 97.003906 50.941406 L 100.3125 50.796875 C 108.082031 50.683594 108.082031 50.683594 111.617188 52.449219 C 116.1875 56.140625 118.78125 61.066406 121.386719 66.238281 C 122.273438 67.925781 123.15625 69.609375 124.042969 71.296875 L 125.40625 73.90625 C 127.726562 78.273438 130.191406 82.5625 132.660156 86.851562 L 134.039062 89.257812 C 135.097656 91.097656 136.152344 92.933594 137.210938 94.769531 L 138.285156 93.140625 C 139.894531 90.699219 141.503906 88.257812 143.117188 85.820312 L 144.808594 83.25 L 146.441406 80.785156 L 147.941406 78.511719 C 149.171875 76.792969 150.40625 75.371094 151.953125 73.941406 C 150.988281 76.96875 149.988281 79.820312 148.484375 82.621094 L 146.75 82.621094 L 146.152344 84.300781 C 144.308594 88.605469 142.277344 93.171875 138.945312 96.507812 C 136.8125 96.410156 136.8125 96.410156 134.609375 95.640625 C 133.328125 94.027344 133.328125 94.027344 132.335938 92.003906 L 131.25 89.867188 L 130.273438 87.828125 C 128.613281 84.316406 128.613281 84.316406 126.480469 81.105469 C 124.703125 78.632812 123.46875 76.035156 122.148438 73.289062 C 120.402344 69.710938 118.617188 66.222656 116.457031 62.875 L 114.667969 60.054688 L 114.667969 58.316406 L 112.71875 57.667969 C 110.332031 56.582031 110.332031 56.582031 108.988281 54.796875 C 107.070312 52.988281 107.070312 52.988281 105.03125 52.816406 C 102.761719 52.738281 100.519531 52.765625 98.25 52.839844 L 95.898438 52.863281 C 92.808594 52.917969 89.949219 53.019531 86.917969 53.671875 L 85.1875 53.976562 L 83.457031 52.242188 C 87.390625 50.273438 92.683594 51.019531 97.003906 50.941406 "/><path style=" stroke:none;fill-rule:nonzero;fill:#392fb3;fill-opacity:1;" d="M 212.644531 256.203125 C 214.1875 256.128906 215.734375 256.097656 217.28125 256.105469 L 220.277344 256.105469 L 223.539062 256.121094 L 226.859375 256.125 C 229.777344 256.128906 232.695312 256.136719 235.613281 256.144531 C 238.589844 256.152344 241.5625 256.160156 244.539062 256.164062 C 250.382812 256.171875 256.222656 256.1875 262.066406 256.203125 L 262.066406 257.074219 L 259.234375 257.136719 C 255.707031 257.222656 252.183594 257.308594 248.65625 257.394531 C 247.140625 257.433594 245.625 257.46875 244.109375 257.503906 C 239.113281 257.621094 234.113281 257.761719 229.117188 257.941406 L 227.207031 258.003906 C 225.496094 258.070312 223.789062 258.15625 222.082031 258.242188 L 219.199219 258.382812 L 216.980469 258.808594 C 215.300781 261.324219 214.984375 262.191406 214.703125 265.046875 L 214.378906 268.355469 L 216.710938 268.34375 C 219.574219 268.328125 222.4375 268.316406 225.300781 268.308594 C 226.539062 268.304688 227.777344 268.296875 229.015625 268.289062 C 230.796875 268.28125 232.578125 268.273438 234.359375 268.269531 L 237.609375 268.257812 C 239.882812 268.335938 241.703125 268.542969 243.859375 269.222656 L 243.859375 270.960938 C 239.429688 270.980469 235 270.996094 230.570312 271.007812 C 229.0625 271.011719 227.554688 271.019531 226.046875 271.023438 C 223.882812 271.035156 221.71875 271.039062 219.558594 271.042969 L 217.503906 271.058594 C 215.882812 271.058594 214.261719 271.011719 212.644531 270.960938 L 211.777344 270.089844 C 211.691406 267.914062 211.65625 265.761719 211.667969 263.582031 L 211.660156 261.734375 C 211.660156 260.179688 211.714844 258.625 211.777344 257.074219 Z M 212.644531 256.203125 "/><path style=" stroke:none;fill-rule:nonzero;fill:#82187b;fill-opacity:1;" d="M 48.773438 283.109375 C 49.640625 284.46875 49.640625 284.46875 50.507812 286.582031 C 50.574219 288.605469 50.585938 290.632812 50.507812 292.65625 L 52.242188 292.65625 C 53.417969 295.242188 54.023438 297.355469 54.410156 300.199219 L 54.84375 303.074219 L 56.578125 304.808594 C 57.25 306.441406 57.25 306.441406 57.882812 308.394531 L 58.578125 310.515625 L 59.285156 312.726562 L 60.015625 314.960938 C 60.605469 316.785156 61.195312 318.605469 61.777344 320.429688 C 65.828125 321.191406 68.988281 321.289062 73.050781 320.429688 L 74.785156 318.695312 C 75.222656 317.050781 75.636719 315.402344 76.027344 313.746094 C 77.117188 309.324219 78.324219 305.136719 80.855469 301.335938 C 81.359375 302.804688 81.359375 302.804688 81.722656 304.808594 C 81.289062 306.863281 81.289062 306.863281 80.539062 309.105469 L 79.722656 311.550781 L 78.847656 314.085938 L 78.003906 316.648438 C 76.433594 321.285156 76.433594 321.285156 75.652344 323.035156 C 73.035156 324.34375 70.339844 324.132812 67.46875 324.175781 L 65.679688 324.25 C 63.949219 324.273438 63.949219 324.273438 60.914062 323.902344 C 57.855469 320.933594 56.863281 316.726562 55.5625 312.78125 L 54.808594 310.535156 C 54.285156 308.976562 53.765625 307.414062 53.25 305.851562 C 52.457031 303.457031 51.65625 301.0625 50.84375 298.675781 L 49.328125 294.121094 L 48.59375 291.949219 C 48.015625 290.179688 47.519531 288.382812 47.039062 286.582031 C 47.90625 283.976562 47.90625 283.976562 48.773438 283.109375 "/><path style=" stroke:none;fill-rule:nonzero;fill:#392fb3;fill-opacity:1;" d="M 84.503906 50.210938 C 85.574219 50.222656 86.644531 50.238281 87.75 50.253906 L 89.484375 50.261719 C 91.304688 50.277344 93.125 50.308594 94.945312 50.34375 C 96.179688 50.355469 97.417969 50.371094 98.65625 50.378906 C 101.679688 50.410156 104.707031 50.453125 107.730469 50.507812 L 107.730469 51.375 L 105.730469 51.371094 C 102.730469 51.382812 99.730469 51.433594 96.730469 51.484375 L 93.582031 51.476562 C 90.695312 51.539062 88.019531 51.660156 85.1875 52.242188 C 83.003906 53.804688 82.246094 55.078125 80.855469 57.449219 L 79.226562 58.695312 L 78.253906 60.054688 C 78.472656 63.105469 78.472656 63.105469 79.121094 66.128906 L 79.121094 68.734375 L 80.855469 68.734375 L 82.589844 73.941406 L 84.320312 73.941406 C 84.902344 75.496094 85.480469 77.050781 86.054688 78.605469 L 87.03125 81.230469 C 87.789062 83.488281 87.789062 83.488281 87.789062 85.222656 L 89.523438 85.222656 C 90.273438 86.609375 91.015625 88.003906 91.746094 89.398438 L 92.996094 91.75 C 93.28125 92.460938 93.566406 93.171875 93.859375 93.902344 L 92.992188 96.507812 C 89.222656 92.332031 86.914062 87.425781 84.375 82.457031 L 83.03125 79.851562 C 81.71875 77.308594 80.417969 74.757812 79.121094 72.203125 L 77.84375 69.730469 L 76.65625 67.402344 L 75.597656 65.339844 C 74.785156 63.527344 74.785156 63.527344 74.296875 60.703125 C 74.945312 57.53125 76.238281 55.628906 78.253906 53.109375 C 80.394531 51.027344 81.488281 50.53125 84.503906 50.210938 "/><path style=" stroke:none;fill-rule:nonzero;fill:#4f1ead;fill-opacity:1;" d="M 216.113281 303.941406 C 216.113281 310.015625 216.113281 310.015625 214.8125 312.402344 C 213.328125 315.617188 213.410156 317.804688 213.511719 321.300781 C 217.195312 321.324219 220.882812 321.339844 224.566406 321.355469 L 227.734375 321.375 L 230.785156 321.382812 L 233.589844 321.398438 C 235.734375 321.3125 237.464844 320.957031 239.523438 320.429688 L 240.390625 321.300781 C 242.058594 321.429688 243.730469 321.523438 245.40625 321.574219 L 248.480469 321.683594 L 251.714844 321.789062 L 254.960938 321.902344 C 257.617188 321.992188 260.273438 322.082031 262.933594 322.167969 L 262.933594 310.015625 L 230.851562 310.015625 L 230.851562 309.148438 L 263.800781 309.148438 L 263.800781 323.035156 C 256.917969 323.054688 250.039062 323.070312 243.15625 323.078125 C 239.960938 323.085938 236.765625 323.089844 233.570312 323.101562 C 230.492188 323.109375 227.410156 323.113281 224.332031 323.117188 C 223.152344 323.117188 221.972656 323.121094 220.796875 323.125 C 219.152344 323.132812 217.507812 323.132812 215.863281 323.132812 L 213.023438 323.140625 L 210.910156 323.035156 L 210.042969 322.167969 C 209.546875 318.339844 209.480469 314.703125 210.042969 310.882812 C 211.691406 308.09375 213.644531 306.027344 216.113281 303.941406 "/><path style=" stroke:none;fill-rule:nonzero;fill:#392fb3;fill-opacity:1;" d="M 284.609375 281.375 C 285.625 284.523438 285.445312 287.363281 285.3125 290.652344 C 285.28125 295.433594 285.664062 299.03125 287.902344 303.273438 C 289.429688 305.523438 290.945312 306.890625 293.277344 308.28125 C 296.90625 309.929688 300.285156 310.382812 304.226562 310.296875 C 308.730469 309.683594 312.597656 307.5625 316.308594 305.027344 L 317.554688 303.941406 L 317.554688 308.28125 L 315.820312 309.148438 L 314.085938 308.28125 L 313.222656 310.882812 C 311.121094 312.613281 308.875 313.578125 306.285156 314.355469 C 301.464844 314.664062 297.1875 313.921875 292.84375 311.804688 C 290.890625 310.714844 289.078125 309.527344 287.210938 308.28125 L 287.210938 305.675781 L 285.476562 305.675781 C 282.769531 299.199219 281.628906 293.546875 282.386719 286.527344 C 282.546875 285.398438 282.707031 284.273438 282.875 283.109375 L 284.609375 283.109375 Z M 284.609375 281.375 "/><path style=" stroke:none;fill-rule:nonzero;fill:#274ab4;fill-opacity:1;" d="M 295.410156 256.695312 C 314.890625 256.238281 314.890625 256.238281 320.644531 259.1875 C 322.6875 260.640625 322.6875 260.640625 324.492188 262.28125 L 326.433594 264.03125 C 330.839844 268.515625 333.890625 273.628906 335.765625 279.640625 C 336.0625 282.089844 335.996094 284.105469 335.765625 286.582031 L 334.03125 286.582031 L 333.703125 284.828125 C 332.140625 277.828125 329.25 272.832031 324.492188 267.488281 C 320.8125 263.851562 317.117188 260.578125 312.027344 259.242188 C 307.304688 258.535156 302.363281 258.324219 297.613281 258.808594 L 295.011719 260.542969 C 292.683594 260.21875 292.683594 260.21875 290.679688 259.675781 C 292.191406 257.765625 292.976562 257.125 295.410156 256.695312 "/><path style=" stroke:none;fill-rule:nonzero;fill:#392fb3;fill-opacity:1;" d="M 247.273438 257.019531 C 248.882812 257.023438 250.496094 257.027344 252.105469 257.03125 C 256.003906 257.039062 259.902344 257.054688 263.800781 257.074219 C 263.875 259.15625 263.929688 261.234375 263.976562 263.316406 L 264.046875 265.09375 C 264.09375 268.042969 263.890625 269.917969 262.476562 272.53125 C 260.988281 274.3125 259.644531 275.71875 257.730469 277.035156 C 255.792969 277.636719 255.792969 277.636719 254.261719 277.902344 C 255.296875 275.453125 256.347656 274.0625 258.21875 272.097656 C 259.652344 270.441406 260.296875 269.359375 260.835938 267.210938 C 261.070312 265.253906 261.253906 263.386719 261.199219 261.414062 L 260.332031 259.675781 L 257.953125 259.691406 C 229.132812 259.835938 229.132812 259.835938 216.113281 258.808594 L 216.113281 257.941406 C 226.511719 257.054688 236.839844 256.96875 247.273438 257.019531 M 281.140625 261.414062 L 282.875 262.28125 L 279.40625 266.621094 L 282.007812 266.621094 L 280.742188 267.828125 L 279.082031 269.441406 L 277.433594 271.027344 C 274.722656 274.050781 273.625 277.519531 272.46875 281.375 C 272.148438 283.105469 271.851562 284.839844 271.601562 286.582031 L 270.734375 286.582031 C 270.515625 292.566406 270.832031 298.691406 273.398438 304.199219 L 274.203125 305.675781 L 272.46875 305.675781 L 271.601562 308.28125 C 268.125 301.21875 267.507812 294.589844 267.800781 286.855469 C 268.261719 280.1875 270.609375 274.925781 274.148438 269.332031 C 276.1875 266.433594 278.515625 263.792969 281.140625 261.414062 "/><path style=" stroke:none;fill-rule:nonzero;fill:#721a9c;fill-opacity:1;" d="M 143.28125 273.5625 C 144.203125 274.863281 144.203125 274.863281 145.015625 277.035156 C 144.742188 280.367188 144.238281 283.519531 143.605469 286.800781 C 143.070312 292.152344 143.128906 297.609375 144.949219 302.722656 C 145.550781 304.035156 146.171875 305.335938 146.816406 306.628906 C 148.207031 309.503906 148.484375 312.070312 148.484375 315.222656 C 144.144531 309.277344 141.316406 304.074219 140.273438 296.742188 C 139.484375 288.492188 140.046875 281.222656 143.28125 273.5625 "/><path style=" stroke:none;fill-rule:nonzero;fill:#274ab4;fill-opacity:1;" d="M 180.5625 93.902344 C 182.785156 94.226562 182.785156 94.226562 184.898438 94.769531 L 185.765625 95.640625 C 185.800781 97.085938 185.804688 98.53125 185.765625 99.976562 L 182.296875 95.640625 L 179.476562 100.003906 C 178.640625 101.304688 177.800781 102.601562 176.957031 103.898438 C 174.519531 107.65625 172.105469 111.425781 169.707031 115.207031 L 168.183594 117.597656 C 167.199219 119.144531 166.21875 120.695312 165.242188 122.25 L 163.875 124.390625 L 162.667969 126.292969 L 161.488281 127.75 L 158.886719 128.621094 L 158.886719 126.015625 L 160.621094 126.015625 L 160.921875 124.511719 C 161.542969 122.359375 162.417969 120.753906 163.601562 118.855469 L 164.738281 117 L 165.824219 115.601562 L 167.558594 115.601562 L 168.046875 113.050781 C 169.109375 109.246094 171.367188 106.707031 173.847656 103.699219 C 175.304688 101.792969 176.34375 99.96875 177.367188 97.808594 L 178.828125 94.769531 Z M 180.5625 93.902344 "/><path style=" stroke:none;fill-rule:nonzero;fill:#392fb3;fill-opacity:1;" d="M 207.441406 155.527344 L 207.441406 158.128906 C 205.816406 160.40625 205.816406 160.40625 203.105469 162.46875 C 200.234375 163.152344 197.378906 163.214844 194.4375 163.335938 C 192.539062 163.511719 190.644531 163.695312 188.746094 163.878906 C 187.175781 164.027344 185.605469 164.148438 184.03125 164.203125 L 183.164062 163.335938 C 180.714844 164.15625 178.964844 164.957031 176.988281 166.644531 C 175.304688 168.613281 174.078125 170.664062 172.761719 172.882812 L 171.027344 173.75 C 171.074219 171.441406 171.167969 169.839844 171.894531 167.675781 C 173.667969 165.351562 175.648438 163.390625 177.960938 161.601562 C 180.527344 160.746094 182.316406 160.601562 184.996094 160.550781 L 187.625 160.476562 C 189.445312 160.429688 191.265625 160.390625 193.085938 160.359375 C 196.96875 160.238281 199.988281 160.066406 203.632812 158.636719 C 205.753906 157.328125 205.753906 157.328125 207.441406 155.527344 "/><path style=" stroke:none;fill-rule:nonzero;fill:#17649f;fill-opacity:1;" d="M 276.804688 108.65625 L 277.671875 110.394531 C 276.847656 112.441406 276.847656 112.441406 275.535156 115.011719 L 274.09375 117.867188 L 272.523438 120.917969 L 269.390625 127.082031 L 267.839844 130.125 C 266.605469 132.558594 265.390625 135 264.195312 137.453125 L 263.253906 139.382812 C 262.695312 140.527344 262.140625 141.675781 261.585938 142.824219 C 260.304688 145.433594 259.097656 147.558594 256.863281 149.449219 L 255.128906 147.714844 L 256.292969 145.882812 C 258.253906 142.457031 259.554688 138.851562 260.953125 135.171875 L 262.066406 132.960938 L 264.667969 132.089844 L 264.9375 129.164062 L 265.535156 126.015625 L 268.132812 124.28125 C 269.109375 122.335938 269.109375 122.335938 269.867188 120.105469 C 271.0625 116.949219 272.195312 114.003906 274.203125 111.261719 L 275.9375 111.261719 Z M 276.804688 108.65625 "/><path style=" stroke:none;fill-rule:nonzero;fill:#721a9c;fill-opacity:1;" d="M 82.589844 256.203125 C 84.589844 256.117188 86.597656 256.09375 88.605469 256.097656 L 91.933594 256.089844 C 94.726562 256.203125 94.726562 256.203125 96.460938 257.074219 C 97.304688 259.289062 98.046875 261.476562 98.746094 263.742188 L 99.386719 265.769531 C 99.832031 267.183594 100.273438 268.601562 100.714844 270.019531 C 101.390625 272.199219 102.078125 274.371094 102.769531 276.542969 C 103.199219 277.917969 103.628906 279.289062 104.058594 280.667969 L 104.6875 282.644531 C 105.171875 284.230469 105.59375 285.839844 106 287.449219 L 105.132812 289.1875 L 104.371094 287.558594 C 103.453125 285.597656 103.453125 285.597656 101.664062 283.976562 C 100.921875 281.882812 100.234375 279.765625 99.605469 277.632812 L 99.039062 275.765625 C 98.652344 274.5 98.269531 273.230469 97.890625 271.960938 C 97.046875 269.164062 96.183594 266.375 95.324219 263.582031 L 93.859375 258.808594 C 92.015625 258.761719 90.175781 258.726562 88.332031 258.699219 L 85.222656 258.640625 L 82.589844 258.808594 L 80.855469 260.542969 C 81.117188 259.382812 81.40625 258.222656 81.722656 257.074219 Z M 82.589844 256.203125 "/><path style=" stroke:none;fill-rule:nonzero;fill:#392fb3;fill-opacity:1;" d="M 171.027344 169.414062 L 171.894531 171.148438 C 170.796875 176.648438 168.25 180.609375 164.957031 185.035156 C 164.652344 186.1875 164.363281 187.347656 164.089844 188.507812 L 162.679688 190.1875 L 161.488281 191.976562 L 162.355469 196.316406 L 178.828125 197.1875 L 178.828125 198.054688 C 176.15625 198.128906 173.484375 198.175781 170.808594 198.21875 L 168.515625 198.28125 C 165.414062 198.316406 162.984375 198.3125 160.09375 197.121094 C 158.886719 195.449219 158.886719 195.449219 158.292969 192.898438 C 158.597656 187.6875 162.226562 183.261719 164.957031 179.015625 L 166.710938 176.210938 C 168.136719 173.9375 169.574219 171.671875 171.027344 169.414062 "/><path style=" stroke:none;fill-rule:nonzero;fill:#781485;fill-opacity:1;" d="M 38.367188 256.203125 L 54.84375 256.203125 L 57.445312 261.414062 L 56.578125 263.148438 L 55.332031 260.976562 L 53.109375 258.808594 C 50.410156 258.210938 48.011719 258.269531 45.304688 258.808594 C 42.949219 260.148438 42.949219 260.148438 41.835938 262.28125 C 41.785156 264.035156 41.785156 264.035156 42.703125 265.75 L 44.113281 267.757812 L 45.304688 270.089844 C 45.035156 273.402344 45.035156 273.402344 44.4375 276.167969 C 42.523438 273.292969 41.503906 270.410156 40.429688 267.164062 L 39.824219 265.425781 C 38.710938 262.089844 38.367188 259.804688 38.367188 256.203125 "/><path style=" stroke:none;fill-rule:nonzero;fill:#274ab4;fill-opacity:1;" d="M 196.171875 118.203125 L 198.773438 119.074219 C 200.234375 122.164062 200.234375 122.164062 201.371094 125.148438 L 203.105469 125.148438 L 203.867188 127.101562 C 204.777344 129.421875 204.777344 129.421875 205.761719 131.332031 C 206.574219 132.960938 206.574219 132.960938 207.441406 135.5625 L 209.175781 135.5625 C 210.988281 138.636719 211.472656 141.601562 211.992188 145.109375 L 212.496094 148.3125 C 212.644531 151.1875 212.644531 151.1875 211.878906 153.179688 L 210.910156 154.65625 L 209.933594 156.609375 L 209.175781 158.128906 L 207.441406 157.261719 L 208.308594 155.144531 C 209.371094 151.359375 209.691406 148.152344 209.175781 144.242188 C 208.113281 141.316406 206.660156 138.691406 205.113281 135.996094 L 203.96875 133.917969 C 202.417969 131.121094 200.84375 128.332031 199.25 125.558594 L 198.050781 123.4375 L 196.957031 121.53125 C 196.171875 119.941406 196.171875 119.941406 196.171875 118.203125 "/><g clip-rule="nonzero" clip-path="url(#350a744b25)"><path style=" stroke:none;fill-rule:nonzero;fill:#392fb3;fill-opacity:1;" d="M 272.46875 308.28125 L 275.9375 309.148438 L 276.15625 310.777344 L 276.804688 312.621094 C 278.523438 313.734375 278.523438 313.734375 280.273438 314.355469 L 280.273438 316.089844 L 281.949219 316.761719 L 284.121094 317.664062 L 286.285156 318.550781 L 288.078125 319.5625 L 288.945312 322.167969 L 291.542969 321.300781 C 293.089844 321.40625 294.628906 321.566406 296.160156 321.785156 L 298.863281 322.148438 L 301.679688 322.546875 L 304.523438 322.933594 C 306.847656 323.253906 309.167969 323.574219 311.488281 323.902344 L 311.488281 324.769531 C 304.253906 326.378906 297.425781 326.0625 290.351562 323.867188 C 283.257812 321.269531 278.886719 317.617188 273.902344 311.929688 L 272.46875 310.015625 Z M 272.46875 308.28125 "/></g><path style=" stroke:none;fill-rule:nonzero;fill:#177e89;fill-opacity:1;" d="M 289.8125 80.882812 L 291.542969 80.882812 C 290.265625 85.117188 288.511719 88.902344 286.503906 92.816406 L 284.632812 96.503906 L 283.71875 98.300781 C 282.277344 101.167969 280.925781 104.078125 279.582031 106.992188 C 278.355469 108.949219 276.980469 109.988281 275.070312 111.261719 C 275.902344 106.210938 278.082031 101.960938 280.273438 97.375 L 281.429688 94.917969 C 283.09375 91.476562 284.464844 88.761719 287.210938 86.089844 C 287.828125 84.265625 287.828125 84.265625 288.078125 82.621094 L 289.8125 82.621094 Z M 289.8125 80.882812 "/><path style=" stroke:none;fill-rule:nonzero;fill:#274ab4;fill-opacity:1;" d="M 244.726562 171.148438 L 246.457031 171.148438 C 244.664062 177.796875 241.3125 184.332031 236.542969 189.320312 C 233.691406 191.9375 230.898438 193.820312 227.382812 195.449219 C 224.835938 195.667969 224.835938 195.667969 223.046875 195.449219 L 224.78125 193.714844 L 228.25 193.714844 L 228.25 191.976562 C 229.675781 190.511719 229.675781 190.511719 231.558594 188.886719 L 233.414062 187.253906 C 235.1875 185.902344 235.1875 185.902344 237.789062 185.035156 C 238.390625 183.308594 238.964844 181.570312 239.523438 179.828125 C 240.644531 178.070312 241.800781 176.332031 242.992188 174.621094 C 243.597656 173.476562 244.175781 172.320312 244.726562 171.148438 "/><path style=" stroke:none;fill-rule:nonzero;fill:#58129b;fill-opacity:1;" d="M 167.558594 269.222656 L 165.171875 270.6875 C 162.402344 272.664062 160.734375 274.195312 158.886719 277.035156 L 157.152344 283.109375 L 188.367188 283.109375 L 188.367188 283.976562 L 155.417969 283.976562 C 156.414062 275.019531 156.414062 275.019531 158.886719 270.960938 C 160.621094 269.222656 160.621094 269.222656 162.246094 268.628906 C 164.28125 268.328125 165.617188 268.597656 167.558594 269.222656 "/><path style=" stroke:none;fill-rule:nonzero;fill:#392fb3;fill-opacity:1;" d="M 187.5 259.675781 C 190.992188 260.429688 193.046875 260.988281 195.84375 263.257812 C 199.296875 267.4375 202.265625 271.855469 203.972656 277.035156 C 204.144531 279.546875 204.144531 279.546875 204.082031 282.082031 L 204.035156 284.648438 L 203.972656 286.582031 L 203.105469 286.582031 L 202.691406 284.390625 C 201.414062 278.230469 199.996094 272.589844 196.171875 267.488281 L 193.570312 265.75 L 193.570312 264.015625 L 191.511719 263.203125 C 189.234375 262.28125 189.234375 262.28125 187.5 261.414062 Z M 187.5 259.675781 "/><path style=" stroke:none;fill-rule:nonzero;fill:#58129b;fill-opacity:1;" d="M 190.96875 303.941406 C 192.613281 304.089844 192.613281 304.089844 194.4375 304.808594 C 195.914062 306.222656 195.914062 306.222656 197.253906 307.902344 L 198.621094 309.585938 L 199.636719 310.882812 L 195.304688 310.015625 L 194.4375 306.542969 L 190.96875 306.542969 L 190.371094 308.226562 L 189.234375 310.015625 C 187.175781 310.558594 187.175781 310.558594 184.898438 310.882812 L 183.460938 311.726562 C 180.535156 313.011719 177.585938 313.128906 174.441406 313.324219 L 172.546875 313.492188 C 170.722656 313.613281 170.722656 313.613281 167.558594 313.488281 C 165.828125 312.195312 165.828125 312.195312 164.957031 310.882812 L 165.824219 309.148438 L 167.9375 310.015625 C 171.730469 311.082031 174.921875 311.398438 178.828125 310.882812 C 182.949219 309.710938 186.464844 308.417969 189.558594 305.40625 Z M 190.96875 303.941406 "/><path style=" stroke:none;fill-rule:nonzero;fill:#392fb3;fill-opacity:1;" d="M 269 282.242188 L 269.867188 282.242188 L 269.996094 284.40625 C 270.585938 295.414062 270.585938 295.414062 274.203125 305.675781 L 272.46875 305.675781 L 271.601562 308.28125 C 267.550781 300.0625 267.550781 292.066406 268.132812 283.109375 Z M 269 282.242188 "/><g clip-rule="nonzero" clip-path="url(#c145052d4e)"><path style=" stroke:none;fill-rule:nonzero;fill:#721a9c;fill-opacity:1;" d="M 155.417969 293.527344 L 181.429688 294.394531 L 181.429688 295.261719 L 156.285156 295.261719 C 158.734375 300.773438 160.5625 304.539062 164.089844 309.148438 C 162.140625 308.984375 162.140625 308.984375 159.753906 308.28125 C 157.667969 306.371094 156.535156 304.703125 155.65625 302.007812 C 155.175781 300.035156 154.746094 298.152344 154.550781 296.128906 Z M 149.351562 315.222656 C 153.238281 315.589844 155.761719 317.292969 158.941406 319.382812 C 160.867188 320.582031 162.8125 321.429688 164.957031 322.167969 L 164.957031 323.902344 L 167.050781 323.871094 C 176.175781 323.792969 176.175781 323.792969 180.5625 324.769531 L 180.5625 325.640625 C 172.042969 325.96875 165.003906 325.75 157.355469 321.792969 C 151.472656 318.414062 151.472656 318.414062 149.351562 315.222656 "/></g><path style=" stroke:none;fill-rule:nonzero;fill:#392fb3;fill-opacity:1;" d="M 87.582031 50.421875 L 89.324219 50.425781 C 91.160156 50.429688 92.996094 50.441406 94.835938 50.453125 C 96.082031 50.457031 97.324219 50.460938 98.570312 50.464844 C 101.625 50.472656 104.679688 50.488281 107.730469 50.507812 L 107.730469 51.375 L 105.730469 51.371094 C 102.730469 51.382812 99.730469 51.433594 96.730469 51.484375 L 93.582031 51.476562 C 90.695312 51.539062 88.019531 51.664062 85.1875 52.242188 C 83.003906 53.792969 82.261719 55.085938 80.855469 57.449219 C 79.441406 58.644531 78.003906 59.816406 76.519531 60.921875 C 76.960938 57.125 77.757812 54.5 79.988281 51.375 C 82.519531 50.105469 84.753906 50.410156 87.582031 50.421875 "/><path style=" stroke:none;fill-rule:nonzero;fill:#4f1ead;fill-opacity:1;" d="M 129.410156 257.074219 L 138.945312 257.074219 C 138.472656 263.222656 136.683594 268.640625 134.609375 274.429688 L 132.007812 274.429688 L 137.210938 258.808594 L 128.542969 258.808594 Z M 129.410156 257.074219 "/><path style=" stroke:none;fill-rule:nonzero;fill:#781485;fill-opacity:1;" d="M 79.988281 301.335938 L 81.722656 302.203125 C 80.339844 309.375 78.027344 316.144531 75.652344 323.035156 L 71.316406 322.167969 L 72.941406 320.863281 C 74.933594 318.519531 75.460938 316.664062 76.085938 313.683594 C 76.832031 310.355469 78.007812 307.164062 79.121094 303.941406 Z M 79.988281 301.335938 "/><path style=" stroke:none;fill-rule:nonzero;fill:#82187b;fill-opacity:1;" d="M 74.785156 277.902344 L 75.652344 281.375 L 73.917969 286.582031 L 73.917969 289.621094 C 73.917969 292.8125 73.445312 294.945312 72.183594 297.863281 C 70.992188 299.4375 70.992188 299.4375 69.582031 300.46875 C 67.6875 301.066406 67.6875 301.066406 66.113281 301.335938 L 66.113281 295.261719 L 68.714844 297.863281 Z M 74.785156 277.902344 "/><path style=" stroke:none;fill-rule:nonzero;fill:#4f1ead;fill-opacity:1;" d="M 237.789062 277.035156 C 237.789062 280.214844 236.867188 281.953125 235.425781 284.734375 C 233.035156 288.726562 229.8125 292.003906 226.515625 295.261719 L 224.78125 294.394531 C 225.96875 291.816406 227.351562 289.734375 229.152344 287.546875 L 230.675781 285.679688 L 232.261719 283.761719 L 233.867188 281.800781 C 235.171875 280.210938 236.476562 278.621094 237.789062 277.035156 "/><path style=" stroke:none;fill-rule:nonzero;fill:#392fb3;fill-opacity:1;" d="M 158.019531 128.621094 L 160.621094 129.488281 C 158.828125 132.371094 157.023438 135.246094 155.203125 138.113281 L 153.660156 140.601562 L 152.152344 142.964844 L 150.777344 145.15625 L 149.351562 146.847656 C 147.441406 147.523438 147.441406 147.523438 145.882812 147.714844 C 146.097656 146.195312 146.097656 146.195312 146.75 144.242188 L 150.21875 140.769531 C 151.363281 139.078125 152.421875 137.347656 153.480469 135.597656 C 154.921875 133.21875 156.46875 130.925781 158.019531 128.621094 "/><path style=" stroke:none;fill-rule:nonzero;fill:#274ab4;fill-opacity:1;" d="M 171.027344 110.394531 C 171.027344 112.996094 171.027344 112.996094 170.191406 114.632812 C 168.945312 116.589844 167.6875 118.539062 166.421875 120.484375 L 165.109375 122.558594 L 163.828125 124.53125 L 162.660156 126.339844 L 161.488281 127.75 L 158.886719 128.621094 L 158.886719 126.015625 L 160.621094 126.015625 L 160.921875 124.511719 C 161.542969 122.359375 162.417969 120.753906 163.601562 118.855469 L 164.738281 117 L 165.824219 115.601562 L 167.558594 115.601562 L 168.425781 111.261719 Z M 171.027344 110.394531 "/><path style=" stroke:none;fill-rule:nonzero;fill:#4f1ead;fill-opacity:1;" d="M 211.777344 257.074219 L 212.644531 257.074219 L 213.511719 269.222656 L 242.992188 270.089844 L 242.992188 270.960938 C 238.683594 270.980469 234.378906 270.996094 230.074219 271.007812 C 228.605469 271.011719 227.140625 271.019531 225.675781 271.023438 C 223.574219 271.035156 221.46875 271.039062 219.367188 271.042969 L 217.371094 271.058594 C 215.792969 271.058594 214.21875 271.011719 212.644531 270.960938 L 211.777344 270.089844 C 211.714844 267.902344 211.695312 265.714844 211.722656 263.527344 L 211.734375 261.65625 C 211.746094 260.128906 211.761719 258.601562 211.777344 257.074219 "/><path style=" stroke:none;fill-rule:nonzero;fill:#392fb3;fill-opacity:1;" d="M 207.441406 155.527344 L 207.441406 158.128906 L 205.707031 160.734375 C 202.730469 161.609375 199.828125 161.722656 196.738281 161.785156 L 194.113281 161.859375 C 192.304688 161.902344 190.496094 161.941406 188.6875 161.972656 C 183.601562 162.109375 183.601562 162.109375 178.820312 163.660156 L 177.09375 165.074219 L 175.535156 166.277344 L 174.222656 167.40625 L 171.894531 169.414062 C 173.246094 166.089844 175.320312 163.988281 177.960938 161.601562 C 180.527344 160.746094 182.316406 160.601562 184.996094 160.550781 L 187.625 160.476562 C 189.445312 160.429688 191.265625 160.390625 193.085938 160.359375 C 196.96875 160.238281 199.988281 160.066406 203.632812 158.636719 C 205.753906 157.328125 205.753906 157.328125 207.441406 155.527344 "/><path style=" stroke:none;fill-rule:nonzero;fill:#4f1ead;fill-opacity:1;" d="M 216.113281 303.941406 C 216.113281 307.796875 216 310.664062 214.542969 314.300781 L 213.65625 316.550781 C 212.65625 318.664062 211.511719 320.351562 210.042969 322.167969 C 209.675781 318.339844 209.527344 314.703125 210.042969 310.882812 C 211.6875 308.089844 213.644531 306.027344 216.113281 303.941406 "/><path style=" stroke:none;fill-rule:nonzero;fill:#392fb3;fill-opacity:1;" d="M 302.382812 255.226562 L 305.28125 255.222656 C 307.746094 255.324219 309.957031 255.640625 312.355469 256.203125 L 312.355469 257.074219 L 310.699219 257.109375 C 308.195312 257.175781 305.695312 257.261719 303.195312 257.34375 L 300.59375 257.402344 C 295.46875 257.589844 291.785156 258.230469 287.210938 260.542969 C 284.664062 261.140625 284.664062 261.140625 282.875 261.414062 C 284.71875 259.363281 286.242188 258.316406 288.835938 257.398438 L 290.5625 256.765625 C 294.550781 255.554688 298.214844 255.21875 302.382812 255.226562 "/><path style=" stroke:none;fill-rule:nonzero;fill:#4f1ead;fill-opacity:1;" d="M 191.835938 321.300781 C 190.101562 323.035156 190.101562 323.035156 187.988281 324.011719 C 180.507812 325.851562 172.539062 324.644531 164.957031 323.902344 L 165.824219 322.167969 L 167.28125 322.179688 C 169.46875 322.199219 171.65625 322.210938 173.84375 322.222656 L 176.136719 322.242188 L 178.355469 322.253906 L 180.390625 322.265625 C 184.296875 322.0625 187.828125 321.222656 191.835938 321.300781 "/><path style=" stroke:none;fill-rule:nonzero;fill:#235aab;fill-opacity:1;" d="M 261.199219 134.695312 L 264.667969 134.695312 C 263.269531 139.53125 261.296875 144.324219 258.597656 148.582031 L 255.996094 149.449219 C 255.996094 146.703125 256.480469 145.496094 257.621094 143.050781 C 258.890625 140.289062 260.101562 137.53125 261.199219 134.695312 "/><path style=" stroke:none;fill-rule:nonzero;fill:#721a9c;fill-opacity:1;" d="M 82.589844 257.941406 L 93.859375 257.941406 C 90.398438 259.671875 88.917969 259.847656 85.1875 259.675781 L 84.300781 261.484375 L 83.128906 263.851562 L 81.972656 266.203125 C 80.855469 268.355469 80.855469 268.355469 79.121094 270.960938 C 79.550781 266.046875 80.460938 262.386719 82.589844 257.941406 "/><path style=" stroke:none;fill-rule:nonzero;fill:#235aab;fill-opacity:1;" d="M 293.277344 257.074219 C 295.40625 256.777344 295.40625 256.777344 297.894531 256.820312 L 300.597656 256.84375 L 303.410156 256.910156 L 306.257812 256.945312 C 308.578125 256.976562 310.902344 257.019531 313.222656 257.074219 L 314.085938 259.675781 L 311.703125 259.242188 C 307.058594 258.585938 302.285156 258.40625 297.613281 258.808594 L 295.011719 260.542969 C 292.683594 260.21875 292.683594 260.21875 290.675781 259.675781 C 291.691406 258.390625 291.691406 258.390625 293.277344 257.074219 "/><path style=" stroke:none;fill-rule:nonzero;fill:#781485;fill-opacity:1;" d="M 82.589844 256.203125 C 84.589844 256.117188 86.597656 256.09375 88.605469 256.097656 L 91.933594 256.089844 C 94.726562 256.203125 94.726562 256.203125 96.460938 257.074219 C 96.8125 259.089844 97.105469 261.113281 97.328125 263.148438 C 95.847656 261.730469 94.78125 260.65625 93.859375 258.808594 C 92.015625 258.761719 90.175781 258.726562 88.332031 258.699219 L 85.222656 258.640625 L 82.589844 258.808594 L 80.855469 260.542969 C 81.117188 259.382812 81.40625 258.222656 81.722656 257.074219 Z M 57.445312 264.882812 C 59.664062 268.214844 60.457031 271.519531 61.507812 275.355469 L 62.132812 277.53125 L 62.710938 279.617188 L 63.242188 281.519531 L 63.511719 283.109375 L 62.644531 284.847656 L 60.914062 283.976562 C 59.417969 279.820312 59 276.230469 59.179688 271.828125 L 57.445312 271.828125 Z M 57.445312 264.882812 "/><path style=" stroke:none;fill-rule:nonzero;fill:#392fb3;fill-opacity:1;" d="M 272.46875 308.28125 L 275.9375 309.148438 L 276.15625 310.777344 L 276.804688 312.621094 C 278.523438 313.734375 278.523438 313.734375 280.273438 314.355469 L 280.273438 316.089844 L 283.742188 317.828125 L 283.742188 319.5625 L 285.476562 319.5625 L 284.609375 321.300781 C 279.96875 318.082031 275.679688 314.734375 272.46875 310.015625 Z M 272.46875 308.28125 "/><path style=" stroke:none;fill-rule:nonzero;fill:#721a9c;fill-opacity:1;" d="M 92.125 285.714844 C 93.804688 287.394531 93.804688 287.394531 95.59375 290.054688 C 96.242188 292.652344 96.613281 295.183594 96.460938 297.863281 L 94.726562 300.46875 C 92.738281 295.351562 91.828125 291.210938 92.125 285.714844 "/><path style=" stroke:none;fill-rule:nonzero;fill:#58129b;fill-opacity:1;" d="M 151.085938 263.148438 L 152.820312 264.015625 L 151.085938 266.621094 L 152.820312 267.488281 C 150.8125 269.65625 150.8125 269.65625 148.484375 271.828125 L 145.882812 271.828125 L 145.882812 273.5625 L 144.148438 273.5625 C 145.457031 269.242188 148.097656 266.410156 151.085938 263.148438 "/><path style=" stroke:none;fill-rule:nonzero;fill:#4f1ead;fill-opacity:1;" d="M 119.871094 268.355469 L 121.605469 269.222656 C 121.714844 271.664062 121.714844 271.664062 121.605469 274.429688 L 119.871094 277.035156 L 119.058594 279.585938 C 118.175781 282.132812 117.1875 283.628906 115.535156 285.714844 C 115.78125 284.011719 116.035156 282.3125 116.292969 280.613281 L 116.722656 277.746094 L 117.269531 275.300781 L 119.003906 273.5625 C 119.347656 271.835938 119.644531 270.101562 119.871094 268.355469 "/><g clip-rule="nonzero" clip-path="url(#222c53d6f1)"><path style=" stroke:none;fill-rule:nonzero;fill:#392fb3;fill-opacity:1;" d="M 316.6875 274.429688 C 318.636719 276.210938 319.292969 277.039062 320.15625 279.640625 C 321.167969 283.183594 321.121094 286.609375 321.078125 290.269531 L 321.066406 292.230469 C 321.054688 293.820312 321.039062 295.40625 321.023438 296.996094 L 320.15625 296.996094 L 320.089844 294.421875 C 319.824219 288.292969 319.492188 283.074219 316.464844 277.585938 L 315.820312 276.167969 Z M 295.878906 323.035156 L 311.488281 323.902344 L 311.488281 324.769531 C 308.300781 325.511719 305.378906 325.734375 302.113281 325.695312 L 299.546875 325.667969 L 297.613281 325.640625 L 297.613281 323.902344 Z M 295.878906 323.035156 "/></g><path style=" stroke:none;fill-rule:nonzero;fill:#781485;fill-opacity:1;" d="M 113.800781 283.976562 C 114.972656 287.878906 114.484375 291.296875 113.800781 295.261719 C 113.277344 297.015625 112.722656 298.761719 112.066406 300.46875 L 110.332031 299.601562 C 110.839844 294.128906 112.101562 289.195312 113.800781 283.976562 "/><path style=" stroke:none;fill-rule:nonzero;fill:#4f1ead;fill-opacity:1;" d="M 204.839844 286.582031 L 205.707031 286.582031 C 205.792969 291.921875 205.792969 291.921875 205.707031 293.527344 L 204.839844 294.394531 C 202.527344 294.515625 200.226562 294.429688 197.90625 294.394531 C 199.035156 293.492188 200.191406 292.621094 201.371094 291.789062 L 203.105469 291.789062 L 202.238281 288.316406 Z M 204.839844 286.582031 "/><path style=" stroke:none;fill-rule:nonzero;fill:#721a9c;fill-opacity:1;" d="M 142.414062 303.074219 L 145.015625 303.074219 C 147.230469 307.214844 148.484375 310.519531 148.484375 315.222656 C 147.625 314.019531 146.777344 312.804688 145.9375 311.589844 L 144.503906 309.542969 C 143.242188 307.34375 142.765625 305.570312 142.414062 303.074219 M 116.402344 275.300781 C 117.03125 277.257812 117.300781 278.578125 116.976562 280.628906 L 115.535156 285.714844 L 117.269531 285.714844 C 117 287.289062 117 287.289062 116.402344 289.1875 C 115.5625 290.082031 114.695312 290.949219 113.800781 291.789062 C 114.15625 286.082031 114.550781 280.730469 116.402344 275.300781 "/><path style=" stroke:none;fill-rule:nonzero;fill:#58129b;fill-opacity:1;" d="M 223.914062 294.394531 C 223.914062 297.09375 223.519531 299.550781 223.046875 302.203125 L 216.980469 303.941406 C 218.160156 301.34375 219.539062 299.347656 221.421875 297.214844 L 222.839844 295.601562 Z M 223.914062 294.394531 "/><path style=" stroke:none;fill-rule:nonzero;fill:#392fb3;fill-opacity:1;" d="M 259.464844 270.960938 L 262.066406 272.695312 C 261.261719 273.570312 260.449219 274.4375 259.628906 275.300781 L 258.253906 276.765625 L 256.863281 277.902344 L 254.261719 277.902344 C 255.511719 274.980469 257.152344 273.121094 259.464844 270.960938 "/><path style=" stroke:none;fill-rule:nonzero;fill:#58129b;fill-opacity:1;" d="M 211.777344 309.148438 L 212.644531 309.148438 C 212.714844 310.667969 212.765625 312.1875 212.808594 313.703125 L 212.898438 316.269531 C 212.644531 318.695312 212.644531 318.695312 211.332031 320.742188 L 210.042969 322.167969 C 209.996094 320.324219 209.960938 318.476562 209.933594 316.632812 L 209.875 313.523438 L 210.042969 310.882812 Z M 211.777344 309.148438 "/><path style=" stroke:none;fill-rule:nonzero;fill:#82187b;fill-opacity:1;" d="M 99.0625 312.621094 C 100.726562 313.210938 100.726562 313.210938 102.53125 314.355469 C 103.246094 316.425781 103.246094 316.425781 103.613281 318.804688 C 103.742188 319.59375 103.875 320.382812 104.007812 321.199219 L 104.265625 323.035156 L 102.53125 323.035156 C 101.949219 321.625 101.371094 320.214844 100.796875 318.804688 L 99.820312 316.425781 C 99.0625 314.355469 99.0625 314.355469 99.0625 312.621094 "/><path style=" stroke:none;fill-rule:nonzero;fill:#392fb3;fill-opacity:1;" d="M 126.808594 160.734375 L 127.945312 161.980469 C 129.429688 163.542969 129.429688 163.542969 132.007812 164.203125 L 132.007812 166.808594 L 134.609375 166.808594 L 134.609375 168.542969 L 130.273438 168.542969 C 127.566406 163.96875 127.566406 163.96875 126.808594 162.46875 Z M 126.808594 160.734375 "/><path style=" stroke:none;fill-rule:nonzero;fill:#82187b;fill-opacity:1;" d="M 55.710938 310.015625 L 57.445312 310.882812 C 57.796875 312.898438 58.089844 314.925781 58.3125 316.960938 L 60.914062 316.960938 L 60.046875 322.167969 C 58.148438 320.269531 57.71875 319.09375 56.902344 316.582031 C 56.675781 315.902344 56.453125 315.222656 56.21875 314.519531 C 55.710938 312.621094 55.710938 312.621094 55.710938 310.015625 "/><path style=" stroke:none;fill-rule:nonzero;fill:#392fb3;fill-opacity:1;" d="M 296.746094 256.203125 C 292.292969 258.523438 287.871094 260.65625 282.875 261.414062 C 285.21875 258.8125 287.421875 257.84375 290.671875 256.695312 C 292.75 256.109375 294.597656 256.003906 296.746094 256.203125 M 231.71875 303.074219 L 235.1875 303.941406 L 230.851562 310.015625 L 229.117188 309.148438 L 229.984375 304.808594 L 231.71875 304.808594 Z M 231.71875 303.074219 "/><path style=" stroke:none;fill-rule:nonzero;fill:#17649f;fill-opacity:1;" d="M 242.992188 95.640625 L 245.589844 95.640625 C 244.402344 98.203125 243.058594 100.402344 241.257812 102.582031 L 239.523438 103.449219 L 239.523438 99.109375 L 242.125 99.109375 Z M 242.992188 95.640625 "/><path style=" stroke:none;fill-rule:nonzero;fill:#781485;fill-opacity:1;" d="M 115.15625 322.058594 L 117.269531 323.035156 L 117.269531 323.902344 L 104.265625 323.902344 L 104.265625 323.035156 C 108.191406 321.898438 111.117188 321.066406 115.15625 322.058594 "/><path style=" stroke:none;fill-rule:nonzero;fill:#392fb3;fill-opacity:1;" d="M 187.5 273.5625 C 189.816406 276.65625 190.769531 278.636719 191.835938 282.242188 L 189.234375 284.847656 Z M 105.132812 117.335938 L 106.867188 117.335938 L 107.730469 121.675781 L 109.464844 121.675781 L 110.332031 126.015625 L 108.597656 126.015625 C 105.890625 121.523438 105.890625 121.523438 105.132812 119.941406 Z M 316.6875 303.941406 C 317.230469 305.566406 317.230469 305.566406 317.554688 307.414062 L 315.820312 309.148438 C 313.519531 309.636719 311.234375 309.789062 308.886719 310.015625 L 310.347656 308.929688 C 312.496094 307.304688 314.59375 305.628906 316.6875 303.941406 M 218.714844 302.203125 L 220.449219 302.203125 C 220.339844 303.722656 220.339844 303.722656 219.582031 305.675781 C 216.925781 307.628906 216.925781 307.628906 214.378906 309.148438 C 215.566406 306.585938 216.875 304.351562 218.714844 302.203125 "/><path style=" stroke:none;fill-rule:nonzero;fill:#4f1ead;fill-opacity:1;" d="M 155.417969 293.527344 L 156.285156 293.527344 C 156.625 294.933594 156.945312 296.34375 157.261719 297.757812 L 157.8125 300.136719 L 158.019531 302.203125 L 156.285156 303.941406 C 155.972656 302.695312 155.664062 301.449219 155.367188 300.199219 L 154.847656 298.09375 C 154.550781 296.128906 154.550781 296.128906 155.417969 293.527344 "/><path style=" stroke:none;fill-rule:nonzero;fill:#392fb3;fill-opacity:1;" d="M 284.609375 281.375 C 285.503906 284.210938 285.445312 286.460938 285.097656 289.402344 L 284.828125 291.75 L 284.609375 293.527344 L 283.742188 293.527344 L 282.875 283.109375 L 284.609375 283.109375 Z M 284.609375 281.375 "/><path style=" stroke:none;fill-rule:nonzero;fill:#177e89;fill-opacity:1;" d="M 264.667969 52.242188 L 266.402344 52.242188 C 266.292969 53.761719 266.292969 53.761719 265.535156 55.714844 C 262.878906 57.667969 262.878906 57.667969 260.332031 59.1875 C 261.121094 56.929688 261.835938 55.125 263.367188 53.273438 Z M 264.667969 52.242188 "/><path style=" stroke:none;fill-rule:nonzero;fill:#781485;fill-opacity:1;" d="M 92.992188 292.65625 L 96.460938 294.394531 L 95.59375 300.46875 C 93.75 297.703125 93.425781 295.898438 92.992188 292.65625 "/><path style=" stroke:none;fill-rule:nonzero;fill:#58129b;fill-opacity:1;" d="M 160.621094 257.941406 L 159.753906 261.414062 C 157.359375 261.929688 155.28125 262.28125 152.820312 262.28125 C 158.132812 257.941406 158.132812 257.941406 160.621094 257.941406 "/><path style=" stroke:none;fill-rule:nonzero;fill:#721a9c;fill-opacity:1;" d="M 149.351562 315.222656 C 151.410156 315.550781 151.410156 315.550781 153.683594 316.089844 L 155.417969 317.828125 L 154.550781 320.429688 C 152.800781 319.007812 151.066406 317.558594 149.351562 316.089844 Z M 149.351562 315.222656 "/><path style=" stroke:none;fill-rule:nonzero;fill:#392fb3;fill-opacity:1;" d="M 237.789062 296.996094 L 240.390625 297.863281 L 236.054688 303.074219 L 235.1875 299.601562 L 236.921875 299.601562 Z M 237.789062 296.996094 "/><path style=" stroke:none;fill-rule:nonzero;fill:#781485;fill-opacity:1;" d="M 77.386719 269.222656 L 78.253906 269.222656 C 78.507812 274.480469 78.507812 274.480469 78.253906 276.167969 L 75.652344 277.902344 C 76.050781 274.890625 76.425781 272.109375 77.386719 269.222656 M 119.003906 266.621094 L 119.871094 266.621094 C 120.125 271.875 120.125 271.875 119.871094 273.5625 L 117.269531 275.300781 C 117.667969 272.289062 118.042969 269.507812 119.003906 266.621094 "/><path style=" stroke:none;fill-rule:nonzero;fill:#274ab4;fill-opacity:1;" d="M 156.285156 66.128906 L 158.019531 66.996094 L 156.773438 68.515625 C 155.464844 70.40625 154.953125 71.707031 154.550781 73.941406 L 151.953125 73.941406 C 153.035156 70.9375 154.269531 68.605469 156.285156 66.128906 "/><path style=" stroke:none;fill-rule:nonzero;fill:#4f1ead;fill-opacity:1;" d="M 196.171875 316.089844 L 198.773438 317.828125 C 197.058594 319.019531 195.324219 320.175781 193.570312 321.300781 L 191.835938 321.300781 L 191.835938 319.5625 L 194.4375 319.5625 Z M 199.636719 269.222656 C 201.507812 271.5 202.585938 273.253906 203.105469 276.167969 L 199.636719 274.429688 Z M 180.5625 256.203125 C 182.59375 256.429688 184.617188 256.726562 186.632812 257.074219 L 188.367188 258.808594 C 185.441406 258.972656 185.441406 258.972656 182.296875 258.808594 Z M 180.5625 256.203125 "/><path style=" stroke:none;fill-rule:nonzero;fill:#392fb3;fill-opacity:1;" d="M 165.824219 178.089844 L 166.691406 179.828125 C 166.164062 181.582031 165.589844 183.320312 164.957031 185.035156 L 162.355469 185.035156 C 163.332031 182.457031 164.285156 180.40625 165.824219 178.089844 "/><path style=" stroke:none;fill-rule:nonzero;fill:#274ab4;fill-opacity:1;" d="M 249.058594 162.46875 L 250.792969 163.335938 L 248.191406 169.414062 L 247.324219 169.414062 L 247.324219 163.335938 Z M 249.058594 162.46875 "/><path style=" stroke:none;fill-rule:nonzero;fill:#392fb3;fill-opacity:1;" d="M 113.800781 133.828125 L 116.402344 134.695312 L 116.402344 137.300781 L 118.136719 137.300781 L 117.269531 139.902344 L 114.667969 138.167969 C 114.074219 135.890625 114.074219 135.890625 113.800781 133.828125 "/><path style=" stroke:none;fill-rule:nonzero;fill:#58129b;fill-opacity:1;" d="M 182.296875 270.089844 L 186.632812 270.960938 L 187.5 276.167969 C 183.273438 272.042969 183.273438 272.042969 182.296875 270.089844 "/><path style=" stroke:none;fill-rule:nonzero;fill:#781485;fill-opacity:1;" d="M 52.242188 257.074219 L 55.710938 257.074219 L 57.445312 263.148438 C 53.21875 259.027344 53.21875 259.027344 52.242188 257.074219 "/><path style=" stroke:none;fill-rule:nonzero;fill:#58129b;fill-opacity:1;" d="M 199.636719 310.882812 L 202.238281 313.488281 L 201.371094 316.089844 L 198.773438 316.960938 Z M 199.636719 310.882812 "/><path style=" stroke:none;fill-rule:nonzero;fill:#392fb3;fill-opacity:1;" d="M 82.589844 73.941406 L 84.320312 73.941406 C 85.589844 76.238281 86.054688 77.320312 86.054688 80.015625 L 84.320312 80.015625 C 83.054688 77.71875 82.589844 76.636719 82.589844 73.941406 "/><path style=" stroke:none;fill-rule:nonzero;fill:#235aab;fill-opacity:1;" d="M 324.492188 265.75 C 326.171875 266.511719 326.171875 266.511719 327.960938 267.488281 L 328.828125 269.222656 L 327.09375 270.960938 C 326.191406 269.828125 325.324219 268.671875 324.492188 267.488281 Z M 324.492188 265.75 "/><path style=" stroke:none;fill-rule:nonzero;fill:#392fb3;fill-opacity:1;" d="M 283.742188 317.828125 L 288.078125 319.5625 L 288.078125 321.300781 L 285.476562 321.300781 L 285.476562 319.5625 L 283.742188 319.5625 Z M 241.257812 292.65625 L 243.859375 293.527344 L 240.390625 296.996094 Z M 241.257812 292.65625 "/><path style=" stroke:none;fill-rule:nonzero;fill:#721a9c;fill-opacity:1;" d="M 119.871094 263.148438 L 123.339844 267.488281 L 119.871094 268.355469 Z M 119.871094 263.148438 "/><path style=" stroke:none;fill-rule:nonzero;fill:#274ab4;fill-opacity:1;" d="M 151.953125 73.941406 L 153.683594 73.941406 C 153.414062 75.566406 153.414062 75.566406 152.820312 77.414062 L 150.21875 79.148438 Z M 151.953125 73.941406 "/><path style=" stroke:none;fill-rule:nonzero;fill:#392fb3;fill-opacity:1;" d="M 201.371094 291.789062 L 203.972656 294.394531 L 197.90625 294.394531 Z M 201.371094 291.789062 "/><path style=" stroke:none;fill-rule:nonzero;fill:#235aab;fill-opacity:1;" d="M 318.421875 261.414062 L 322.757812 262.28125 L 321.890625 264.882812 Z M 318.421875 261.414062 "/><path style=" stroke:none;fill-rule:nonzero;fill:#392fb3;fill-opacity:1;" d="M 271.601562 303.941406 L 274.203125 305.675781 L 272.46875 305.675781 L 271.601562 308.28125 C 271.117188 306.597656 271.117188 306.597656 270.734375 304.808594 Z M 271.601562 303.941406 "/><path style=" stroke:none;fill-rule:nonzero;fill:#274ab4;fill-opacity:1;" d="M 209.175781 154.65625 L 210.910156 154.65625 L 209.175781 158.128906 L 207.441406 157.261719 Z M 209.175781 154.65625 "/><path style=" stroke:none;fill-rule:nonzero;fill:#177e89;fill-opacity:1;" d="M 257.730469 66.128906 L 259.464844 68.734375 L 256.863281 70.46875 Z M 257.730469 66.128906 "/><path style=" stroke:none;fill-rule:nonzero;fill:#3667af;fill-opacity:1;" d="M 164.957031 53.976562 L 165.824219 56.582031 L 162.355469 57.449219 Z M 164.957031 53.976562 "/><path style=" stroke:none;fill-rule:nonzero;fill:#392fb3;fill-opacity:1;" d="M 93.859375 96.507812 L 96.460938 97.375 L 96.460938 99.109375 L 93.859375 98.242188 Z M 276.804688 310.882812 L 278.539062 311.75 L 278.539062 313.488281 L 275.9375 312.621094 Z M 97.328125 100.847656 L 99.0625 101.714844 L 99.0625 103.449219 L 96.460938 102.582031 Z M 97.328125 100.847656 "/></g></svg>